<?xml version="1.0" encoding="UTF-8"?>
<svg id="Capa_2" data-name="Capa 2" xmlns="http://www.w3.org/2000/svg" width="433.8" height="225.07" viewBox="0 0 433.8 225.07">
  <defs>
    <style>
      .cls-1 {
        fill: #f7ec00;
      }

      .cls-1, .cls-2, .cls-3, .cls-4, .cls-5, .cls-6, .cls-7, .cls-8, .cls-9, .cls-10, .cls-11, .cls-12, .cls-13, .cls-14, .cls-15, .cls-16, .cls-17, .cls-18, .cls-19, .cls-20, .cls-21, .cls-22, .cls-23, .cls-24, .cls-25, .cls-26, .cls-27, .cls-28, .cls-29, .cls-30, .cls-31, .cls-32 {
        stroke-width: 0px;
      }

      .cls-2 {
        fill: #f7eb00;
      }

      .cls-3 {
        fill: #7270b4;
      }

      .cls-4 {
        fill: #7ac142;
      }

      .cls-5 {
        fill: #716fb3;
      }

      .cls-6 {
        fill: #716fb4;
      }

      .cls-7 {
        fill: #820053;
      }

      .cls-8 {
        fill: #250858;
      }

      .cls-9 {
        fill: #260959;
      }

      .cls-10 {
        fill: #c5a901;
      }

      .cls-11 {
        fill: #907578;
      }

      .cls-12 {
        fill: #7bc143;
      }

      .cls-13 {
        fill: #7e0643;
      }

      .cls-14 {
        fill: #009fc3;
      }

      .cls-15 {
        fill: #009fc2;
      }

      .cls-16 {
        fill: #e64197;
      }

      .cls-17 {
        fill: #e64097;
      }

      .cls-18 {
        fill: #e54097;
      }

      .cls-19 {
        fill: #f16f90;
      }

      .cls-20 {
        fill: #ee3424;
      }

      .cls-21 {
        fill: #ee3423;
      }

      .cls-22 {
        fill: #f27091;
      }

      .cls-23 {
        fill: #e86c1f;
      }

      .cls-24 {
        fill: #f6a01b;
      }

      .cls-25 {
        fill: #e96d20;
      }

      .cls-26 {
        fill: #f59f1a;
      }

      .cls-27 {
        fill: #f5a01b;
      }

      .cls-28 {
        fill: #00b294;
      }

      .cls-29 {
        fill: #00b194;
      }

      .cls-30 {
        fill: #00b193;
      }

      .cls-31 {
        fill: #00788b;
      }

      .cls-32 {
        fill: #00788a;
      }
    </style>
  </defs>
  <path class="cls-13" d="M330.61,103.27h-55c.65,5.57,3.21,9.72,7.96,12.39,4.25,2.39,8.93,3.1,13.73,3.21,8.03.19,15.93-.85,23.76-2.52.64-.13,1.05-.19,1.25.58,1.52,5.99,3.06,11.97,4.63,18.12-.91.32-1.79.66-2.69.94-11,3.43-22.26,4.59-33.72,3.6-8.1-.7-15.9-2.61-23.01-6.73-9.77-5.66-15.84-14.08-18.3-25.05-2.35-10.52-1.85-20.91,2.61-30.82,6.41-14.28,17.47-22.56,33.05-24.61,7.32-.97,14.52-.31,21.45,2.3,9.52,3.59,16.08,10.3,20.1,19.57,2.96,6.85,4.08,14.06,4.18,21.47.03,2.43,0,4.87,0,7.54ZM275.87,86.88h27.89c-.11-.81-.19-1.55-.32-2.28-1.46-7.92-5.97-11.87-13.46-11.88-8.37,0-13.31,6.63-14.11,14.16Z"/>
  <path class="cls-13" d="M243.05,103.25h-54.96c.2,2.67.98,5.01,2.33,7.16,2.66,4.22,6.73,6.33,11.41,7.49,5.11,1.27,10.32,1.24,15.49.76,5.71-.53,11.38-1.43,17.25-2.19.4,1.5.89,3.26,1.34,5.02,1.06,4.09,2.07,8.2,3.18,12.27.29,1.04.1,1.44-.94,1.79-7.17,2.35-14.51,3.75-22.04,4.2-8.75.52-17.4-.02-25.85-2.52-8.05-2.39-15.12-6.4-20.59-12.91-4.81-5.72-7.52-12.38-8.65-19.69-1.36-8.87-.85-17.63,2.58-26.01,6.19-15.12,17.36-24.01,33.63-26.21,8.48-1.14,16.75-.17,24.53,3.58,9.19,4.42,14.96,11.84,18.28,21.32,2.13,6.09,2.96,12.4,2.99,18.82.01,2.31,0,4.62,0,7.13ZM216.22,86.88c-.38-3.6-1.29-6.94-3.52-9.78-2.67-3.41-6.33-4.44-10.51-4.38-7.46.11-12.95,5.76-13.86,14.16h27.88Z"/>
  <path class="cls-13" d="M408.93,55.92c-1.2,6.21-2.41,12.27-3.5,18.35-.22,1.24-.74,1.21-1.69,1.03-6.41-1.22-12.87-2.03-19.4-1.78-5.47.21-10.8,1.12-15.64,3.89-5.55,3.18-8.64,8.06-9.6,14.29-.79,5.15-.36,10.2,1.96,14.96,2.79,5.74,7.61,8.97,13.57,10.72,5.57,1.64,11.28,1.82,16.99,1.28,4.2-.4,8.35-1.27,12.52-1.92.31-.05.62-.04,1.04-.06,1.25,6.57,2.49,13.09,3.8,19.96-3.93.85-7.74,1.98-11.62,2.44-5.3.62-10.67,1.1-16,.95-12.29-.34-23.5-3.96-32.7-12.49-7.21-6.68-11.38-15-12.83-24.68-1.25-8.36-.36-16.49,3.05-24.26,4.49-10.24,12.04-17.45,22.18-21.99,8.1-3.63,16.65-4.81,25.48-4.49,7.22.26,14.3,1.25,21.21,3.39.38.12.75.25,1.19.41Z"/>
  <path class="cls-13" d="M128.17,138.66V53.39h23.51v85.27h-23.51Z"/>
  <path class="cls-13" d="M50.66,0c4.13,14.16,9.77,27.47,18.69,39.26-2.51.94-5,1.74-7.39,2.79-4.74,2.09-9.42,4.33-14.13,6.48-.53.24-1.12.46-1.69.46-3.88.04-7.76.04-11.63-.01-.45,0-1.08-.33-1.32-.7-6.25-9.77-11.21-20.12-14.13-31.4-.33-1.29-.19-2,.99-2.81C29.31,7.74,39.47,3.41,50.12.12c.15-.05.3-.07.54-.12Z"/>
  <path class="cls-13" d="M152.85,31.04c-.01,6.56-5.16,12.8-13.04,12.87-7.29.07-13.04-5.96-12.96-13.3.08-7.25,6.03-12.85,13.51-12.73,6.89.11,12.58,6.11,12.49,13.16Z"/>
  <path class="cls-13" d="M296.01,224.48v-15.72c1.61,0,3.19-.04,4.77.04.24.01.55.49.67.81.98,2.69,1.92,5.4,2.88,8.1.14.39.31.78.6,1.51.94-2.62,1.75-4.89,2.57-7.15.39-1.08.54-2.55,1.32-3.1.78-.55,2.22-.19,3.37-.22.52-.01,1.03,0,1.65,0v15.75h-3.33v-11.45c-.12-.02-.23-.04-.35-.06-.27.75-.55,1.5-.81,2.25-.97,2.82-1.98,5.64-2.87,8.49-.33,1.05-1.05.85-1.77.87-.69.02-1.25.05-1.53-.86-.97-3.16-2.05-6.28-3.09-9.41-.15-.44-.33-.88-.71-1.29v11.46h-3.38Z"/>
  <path class="cls-13" d="M137.9,197.39h-3.33c-.04-.34-.1-.69-.1-1.03,0-4.52.02-9.03-.03-13.55-.01-1.02.37-1.16,1.3-1.29,2.53-.35,4.09.5,5.25,2.86,1.34,2.74,3.14,5.25,5.02,7.82v-10.43c.3-.11.4-.17.51-.18q2.97-.29,2.97,2.65c0,3.88,0,7.75,0,11.63,0,.47,0,.95,0,1.58-1.45,0-2.8.05-4.14-.04-.32-.02-.68-.48-.89-.82-1.87-3.02-3.71-6.05-5.57-9.08-.22-.36-.48-.69-.99-.97v10.85Z"/>
  <path class="cls-13" d="M227.54,189.5c.01-5.01,3.47-8.34,8.64-8.33,5.14.02,8.61,3.44,8.54,8.42-.07,4.93-3.55,8.31-8.58,8.32-5.07,0-8.61-3.46-8.6-8.41ZM241.13,189.59c.04-3.1-1.97-5.26-4.92-5.29-2.97-.04-5.06,2.07-5.11,5.14-.05,3.05,1.99,5.24,4.95,5.31,2.92.07,5.04-2.08,5.08-5.16Z"/>
  <path class="cls-13" d="M330.89,181.17c5.15,0,8.62,3.38,8.59,8.37-.04,4.98-3.57,8.4-8.63,8.37-5.1-.03-8.48-3.42-8.48-8.48,0-4.98,3.4-8.26,8.53-8.26ZM325.92,189.49c0,3.1,2.03,5.25,4.96,5.26,2.93,0,5.04-2.17,5.06-5.22.02-3.03-2.08-5.22-5.02-5.24-2.97-.02-5,2.09-5,5.2Z"/>
  <path class="cls-13" d="M199.06,216.65c.02-4.99,3.49-8.34,8.64-8.33,5.01.01,8.53,3.44,8.58,8.34.04,4.89-3.56,8.39-8.65,8.38-5.16-.01-8.59-3.37-8.57-8.39ZM202.64,216.65c0,3.09,2.04,5.26,4.97,5.28,2.88.02,5.07-2.22,5.1-5.22.03-3.01-2.1-5.22-5.04-5.25-2.97-.02-5.03,2.1-5.03,5.18Z"/>
  <path class="cls-13" d="M225.51,224.72v-15.97c.79,0,1.56-.03,2.34,0,1.95.08,3.93,0,5.84.31,4.07.67,6.34,3.35,6.41,7.27.07,4.12-2.14,7.21-6.15,7.91-2.71.47-5.53.34-8.43.48ZM228.98,221.65c1.6-.2,3.12-.24,4.56-.61,1.86-.48,2.87-1.97,3-3.88.14-2.06-.52-3.68-2.45-4.63-1.6-.79-3.3-.71-5.1-.58v9.71Z"/>
  <path class="cls-13" d="M182.82,224.72v-15.96c3.55.11,7.15-.57,10.55,1.03,2.94,1.38,4.34,4.25,3.97,7.99-.3,3.08-2.67,5.87-6.03,6.43-2.76.46-5.6.36-8.49.51ZM186.13,221.58c1.48-.11,2.76-.1,3.99-.33,2.28-.42,3.59-1.99,3.69-4.2.11-2.52-.98-4.23-3.34-4.83-1.17-.3-2.44-.27-3.66-.31-.22,0-.65.38-.65.59-.04,2.94-.03,5.88-.03,9.08Z"/>
  <path class="cls-13" d="M392.34,197.58c0-3.65,0-7,0-10.35,0-1.56-.04-3.12.03-4.67.02-.33.44-.93.67-.93,2.55.03,5.14-.12,7.63.31,4.26.74,6.38,3.53,6.35,7.69-.03,3.83-2.53,6.91-6.53,7.52-2.61.4-5.3.3-8.15.43ZM395.82,184.62v9.84c1.46-.15,2.85-.15,4.18-.45,2.27-.51,3.44-2.16,3.44-4.54,0-2.23-1.22-3.96-3.41-4.44-1.33-.3-2.74-.28-4.21-.41Z"/>
  <path class="cls-13" d="M342.14,181.46c2.88.13,5.72.06,8.5.44,2.25.31,3.34,1.84,3.47,3.95.16,2.49-.67,3.83-2.93,4.74-.11.04-.2.13-.42.27,1.27,2.13,2.54,4.26,3.93,6.59-1.36,0-2.54.04-3.71-.03-.26-.01-.57-.36-.72-.63-.91-1.68-1.83-3.36-2.65-5.08-.4-.84-1.08-.8-1.7-.63-.25.07-.48.71-.49,1.1-.05,1.71-.02,3.42-.02,5.2h-3.27v-15.92ZM345.47,188.12c1.2,0,2.31.07,3.41-.02.96-.08,1.66-.59,1.69-1.67.04-1.1-.58-1.77-1.61-1.87-1.13-.12-2.28-.03-3.49-.03v3.58Z"/>
  <path class="cls-13" d="M364.76,214.73c2.27,0,4.34.03,6.4-.04.21,0,.58-.58.59-.89.06-1.63.03-3.26.03-4.97h3.27v15.67h-3.21v-6.69h-7.01v6.69h-3.34v-15.65h3.28v5.88Z"/>
  <path class="cls-13" d="M265.19,194.31v3.08h-11.08v-15.69h10.58v3.02h-7.08v3.08h6.8v3.15h-6.78v3.37h7.55Z"/>
  <path class="cls-13" d="M127.93,224.51v-15.68h10.6v3.02h-7.17v3.12h6.75v3.13c-1.91,0-3.78.05-5.65-.02-.95-.04-1.3.27-1.22,1.22.06.67.01,1.34.01,2.13h7.71v3.08h-11.04Z"/>
  <path class="cls-13" d="M253.49,208.82v3.02h-7.23v3.11h6.77v3.1h-6.75v3.41h7.62v3.03h-11.02v-15.66h10.62Z"/>
  <path class="cls-13" d="M331.79,224.48v-15.64h10.61v3.04c-2.01,0-4.04.1-6.05-.03-1.46-.09-1.24.77-1.27,1.65-.03.93-.03,1.61,1.28,1.52,1.82-.12,3.66-.03,5.59-.03v3.13c-1.85,0-3.67.07-5.49-.03-1.13-.06-1.51.33-1.38,1.42.07.58.01,1.18.01,1.92h7.77v3.06h-11.08Z"/>
  <path class="cls-13" d="M413.34,190.91c-.19.24-.23.27-.24.3q-.35,3.14,2.79,3.14c1.59,0,3.17,0,4.83,0v3.03h-10.97v-15.74h10.63v3.02h-7.23v3.11h6.78v3.13h-6.6Z"/>
  <path class="cls-13" d="M382.14,211.87v3.06h6.8v3.16h-6.77v3.35h7.61v3.06h-10.97v-15.66h10.58v3.03h-7.26Z"/>
  <path class="cls-13" d="M284.01,184.68v3.08h6.79v3.17h-6.75v3.38h7.53v3.07h-11.02v-1.83c0-4.23.03-8.47-.02-12.7-.01-.97.24-1.33,1.26-1.3,2.71.06,5.43.07,8.15,0,1.06-.03,1.47.29,1.33,1.35-.07.54-.01,1.1-.01,1.78h-7.25Z"/>
  <path class="cls-13" d="M371.61,197.39c-.24.04-.36.05-.48.07-2.22.35-3.96-.04-4.42-2.67-.05-.27-.59-.64-.92-.66-1.63-.07-3.28-.07-4.91,0-.33.01-.77.34-.94.64-.46.83-.58,2.16-1.24,2.48-.9.45-2.17.16-3.28.19-.04,0-.08-.02-.25-.07.12-.35.23-.71.37-1.04,1.97-4.57,4-9.12,5.89-13.72.44-1.06,1.11-1.03,1.96-1.04.83,0,1.46.03,1.87,1.01,1.94,4.63,3.97,9.22,5.97,13.82.12.29.22.59.36,1ZM361.26,191.16h4.01c-.66-1.68-1.27-3.22-1.87-4.76-.1,0-.2.02-.29.03-.6,1.52-1.19,3.05-1.85,4.73Z"/>
  <path class="cls-13" d="M277.53,224.58c1.31-3.03,2.53-5.87,3.76-8.71.93-2.16,1.83-4.33,2.82-6.45.16-.33.79-.66,1.17-.63.75.06,1.74-.56,2.22.54,2.16,4.96,4.31,9.93,6.46,14.9.03.06,0,.15-.02.35-1.06,0-2.13.06-3.18-.04-.3-.03-.75-.5-.81-.82-.42-2.21-1.77-2.88-3.85-2.5-.27.05-.56,0-.84,0-2.62,0-2.65-.01-3.58,2.44-.28.73-.66.98-1.41.93-.83-.06-1.67-.01-2.75-.01ZM285.71,213.21c-.73,1.88-1.33,3.43-1.98,5.09h3.99c-.65-1.65-1.25-3.18-2-5.09Z"/>
  <path class="cls-13" d="M211.97,181.57c0,3.72.2,7.25-.05,10.74-.31,4.19-3.66,5.87-7.27,5.53-4.13-.39-6.03-2.68-6.04-6.86,0-3.07,0-6.14,0-9.4.98,0,1.89-.08,2.78.05.25.04.6.64.61.99.05,2.75.01,5.51.04,8.26.02,1.95.93,3.33,2.4,3.72,2.17.58,4.09-.95,4.14-3.38.05-2.63.01-5.27.01-7.91q0-1.76,1.72-1.76c.51,0,1.02,0,1.67,0Z"/>
  <path class="cls-13" d="M180.86,224.58c-1.18,0-2.25.06-3.3-.04-.3-.03-.66-.49-.81-.83-1.09-2.47-1.08-2.48-3.73-2.48-.08,0-.16.01-.24,0-2.28-.35-4.06.08-4.49,2.77-.04.24-.55.54-.86.56-.95.07-1.91.03-3.08.03.84-1.98,1.62-3.83,2.42-5.68,1.31-3.04,2.67-6.05,3.93-9.12.35-.87.82-1.14,1.7-1.06.84.08,1.64-.17,2.12.98,1.92,4.64,3.98,9.22,5.98,13.83.12.28.21.58.37,1.03ZM172.51,213.22c-.73,1.87-1.33,3.42-1.97,5.07h3.97c-.66-1.67-1.26-3.19-2-5.07Z"/>
  <path class="cls-13" d="M320.69,224.52h-3.3v-15.76c2.96.14,5.95-.45,8.87.42,2.16.64,3.26,2.55,2.99,4.85-.3,2.55-1.68,3.96-4.22,4.26-.63.07-1.27.06-1.91.06q-2.43,0-2.43,2.48c0,1.19,0,2.38,0,3.69ZM320.77,215.54c1.25-.07,2.4-.06,3.52-.22.9-.13,1.36-.86,1.39-1.71.04-.88-.45-1.59-1.32-1.75-1.15-.2-2.33-.23-3.59-.34v4.01Z"/>
  <path class="cls-13" d="M140.87,223.02c.8-.86,1.55-1.68,2.33-2.52,1.26,1.05,2.59,1.84,4.18,1.19.57-.23,1.3-.89,1.35-1.4.05-.52-.54-1.32-1.06-1.63-.88-.52-1.93-.73-2.9-1.09-2.4-.87-3.44-2.08-3.47-4.04-.03-2.2,1.22-3.97,3.5-4.75,2.61-.89,5.06-.58,7.43,1.17-.81.87-1.54,1.65-1.99,2.13-1.45-.19-2.59-.45-3.74-.46-.85,0-1.67.59-1.57,1.47.07.6.7,1.32,1.28,1.64.89.49,1.95.67,2.93,1.01,1.8.63,3.03,1.75,3.11,3.8.09,2.26-.88,3.92-2.83,4.83-2.78,1.3-6.38.76-8.56-1.34Z"/>
  <path class="cls-13" d="M163.06,182.82c-.72.79-1.44,1.57-1.9,2.07-1.49-.17-2.7-.46-3.89-.37-.51.04-1.18.78-1.38,1.34-.31.86.41,1.39,1.15,1.69.81.33,1.66.56,2.49.84,2.66.88,3.66,2.09,3.62,4.38-.05,2.43-1.41,4.12-3.88,4.82-2.75.78-5.86.05-7.44-1.79.74-.81,1.48-1.62,2.27-2.48,1.14.95,2.32,1.64,3.83,1.33.88-.18,1.64-.54,1.79-1.5.14-.95-.53-1.46-1.31-1.77-1.07-.43-2.18-.74-3.25-1.18-1.55-.63-2.76-1.57-2.88-3.44-.14-2.02.58-3.58,2.32-4.64,2.52-1.52,6.3-1.23,8.47.7Z"/>
  <path class="cls-13" d="M358.83,210.67c-.82.67-1.65,1.34-2.47,2.01-2.44-1.73-5-1.55-6.63.43-1.74,2.12-1.55,5.75.39,7.56,1.87,1.75,4.22,1.63,6.36-.42.45.33.93.66,1.4,1.01.45.33.89.66,1.34.99-1.4,2.35-4.78,3.36-8.26,2.48-3.45-.87-5.8-3.8-5.99-7.48-.21-3.93,1.82-7.17,5.25-8.39,3.33-1.18,6.93-.45,8.6,1.81Z"/>
  <path class="cls-13" d="M307.67,183.49c-.83.67-1.66,1.34-2.47,1.98-2.76-1.67-5.26-1.44-6.77.59-1.67,2.23-1.37,5.77.62,7.55,1.82,1.62,4.1,1.46,6.27-.51.9.67,1.82,1.34,2.74,2.02-2.49,3.38-8.11,3.71-11.54.76-3.5-3.01-3.69-9.09-.39-12.35,3.2-3.16,8.89-3.21,11.54-.04Z"/>
  <path class="cls-13" d="M276.67,210.64c-.91.73-1.74,1.4-2.56,2.06-2.24-1.7-4.89-1.58-6.47.26-1.86,2.17-1.72,5.86.29,7.74,1.85,1.73,4.19,1.6,6.37-.44.89.66,1.8,1.33,2.71,2-1.65,2.44-4.97,3.38-8.33,2.45-3.48-.96-5.67-3.73-5.87-7.42-.21-3.89,1.59-6.98,4.84-8.28,3.39-1.36,7.02-.74,9.02,1.62Z"/>
  <path class="cls-13" d="M166.09,208.85v2.82h-4.46v12.81h-3.51v-12.77h-4.55v-2.86h12.52Z"/>
  <path class="cls-13" d="M169.02,184.56h-4.56c0-.88-.04-1.66.03-2.42.02-.2.39-.52.6-.53,3.91-.03,7.82-.02,11.82-.02v2.94h-4.49v12.86h-3.4v-12.83Z"/>
  <path class="cls-13" d="M316.6,197.39h-3.3v-12.83h-4.5v-2.99c.89,0,1.75,0,2.62,0,2.83,0,5.67.04,8.5-.02,1.04-.02,1.49.26,1.34,1.34-.07.5-.01,1.01-.01,1.65-1.27,0-2.38.05-3.48-.02-.85-.05-1.09.28-1.09,1.1.03,3.59.01,7.18,0,10.78,0,.31-.05.62-.09.99Z"/>
  <path class="cls-13" d="M184.26,184.54v-2.88h12.33v2.88c-1.13,0-2.23.05-3.34-.02-.91-.06-1.16.27-1.15,1.16.04,3.64.02,7.27.02,10.91,0,.23-.03.47-.05.78h-3.25c-.02-.38-.06-.79-.06-1.21,0-3.52-.03-7.03.01-10.55,0-.84-.26-1.13-1.1-1.09-1.11.06-2.22.01-3.4.01Z"/>
  <path class="cls-13" d="M226.49,184.54c-1.28,0-2.35.05-3.42-.02-.93-.06-1.25.24-1.23,1.2.06,3.47.02,6.95.02,10.43,0,.39,0,.78,0,1.24h-3.37c0-.42,0-.84,0-1.26,0-3.44-.03-6.87.02-10.31.01-.96-.22-1.38-1.26-1.3-1.03.08-2.07.02-3.22.02v-2.88c.38-.03.8-.08,1.22-.08,3.24,0,6.47.05,9.71-.03,1.18-.03,1.73.26,1.53,1.51-.07.42-.01.86-.01,1.47Z"/>
  <path class="cls-13" d="M427.38,194.35h6.42v3.04h-9.84v-15.7h3.42v12.66Z"/>
  <path class="cls-13" d="M278.23,194.36v3.03h-9.73v-15.7h3.26c0,.64,0,1.26,0,1.89,0,3.23.02,6.47-.02,9.7-.01.83.25,1.12,1.09,1.1,1.75-.05,3.5-.02,5.4-.02Z"/>
  <path class="cls-13" d="M373.7,197.39c-.03-.43-.07-.82-.07-1.21,0-4.43.03-8.87-.03-13.3-.01-1.08.33-1.44,1.36-1.32.63.07,1.27.01,2.05.01v12.73h6.43v3.09h-9.74Z"/>
  <path class="cls-9" d="M63.52,70.07c-.01,2.59-2.05,4.61-4.64,4.61-2.55,0-4.66-2.1-4.66-4.64,0-2.49,2.21-4.68,4.69-4.66,2.55.02,4.62,2.13,4.61,4.68Z"/>
  <path class="cls-9" d="M4.68,125.76C2.07,125.78,0,123.76,0,121.19c0-2.57,2.04-4.68,4.59-4.72,2.49-.04,4.66,2.1,4.69,4.63.03,2.57-2.03,4.65-4.6,4.66Z"/>
  <path class="cls-8" d="M85.91,100.38c-2.61.03-4.65-1.99-4.65-4.6,0-2.6,2.06-4.67,4.63-4.65,2.55.02,4.64,2.14,4.62,4.69-.02,2.5-2.07,4.53-4.6,4.56Z"/>
  <path class="cls-7" d="M81.28,70.11c-.01-2.57,2.04-4.69,4.57-4.71,2.49-.02,4.63,2.14,4.62,4.67,0,2.59-2.05,4.62-4.64,4.6-2.53-.01-4.54-2.02-4.55-4.56Z"/>
  <path class="cls-7" d="M58.92,100.36c-2.54.02-4.71-2.11-4.69-4.59.03-2.49,2.07-4.55,4.57-4.59,2.59-.05,4.67,1.97,4.7,4.54.03,2.57-2,4.63-4.59,4.65Z"/>
  <path class="cls-20" d="M76.94,82.98c0,2.51-2.07,4.62-4.52,4.6-2.49-.02-4.53-2.08-4.53-4.59,0-2.5,2.05-4.58,4.53-4.6,2.46-.02,4.52,2.08,4.52,4.6Z"/>
  <path class="cls-20" d="M36.14,108.39c0,2.49-2.13,4.63-4.56,4.59-2.46-.04-4.51-2.15-4.5-4.64,0-2.5,2.09-4.58,4.55-4.56,2.49.02,4.51,2.09,4.5,4.61Z"/>
  <path class="cls-32" d="M22.69,82.95c.01,2.5-2.05,4.59-4.53,4.59-2.44,0-4.48-2.03-4.51-4.48-.03-2.52,1.98-4.62,4.45-4.66,2.45-.04,4.57,2.07,4.58,4.55Z"/>
  <path class="cls-32" d="M4.63,138.65c-2.49.01-4.59-2.09-4.57-4.57.03-2.43,2.06-4.48,4.5-4.54,2.41-.06,4.62,2.1,4.64,4.54.02,2.47-2.07,4.56-4.58,4.57Z"/>
  <path class="cls-31" d="M90.38,108.4c-.02,2.48-2.18,4.63-4.58,4.55-2.49-.08-4.47-2.17-4.45-4.7.02-2.42,2.11-4.47,4.54-4.46,2.49,0,4.52,2.09,4.49,4.6Z"/>
  <path class="cls-23" d="M45.2,74.6c-2.35,0-4.51-2.15-4.54-4.54-.03-2.31,2.19-4.55,4.52-4.57,2.42-.02,4.57,2.15,4.58,4.61,0,2.36-2.15,4.48-4.56,4.49Z"/>
  <path class="cls-25" d="M13.69,95.76c0-2.56,1.9-4.45,4.46-4.45,2.59,0,4.53,1.95,4.51,4.54-.02,2.42-2.11,4.45-4.55,4.43-2.5-.02-4.42-1.99-4.42-4.52Z"/>
  <path class="cls-23" d="M76.89,95.77c0,2.51-1.95,4.5-4.43,4.51-2.52.01-4.53-2.01-4.53-4.56,0-2.51,1.95-4.41,4.51-4.41,2.53,0,4.45,1.92,4.46,4.46Z"/>
  <path class="cls-31" d="M85.86,61.59c-2.6-.01-4.52-1.97-4.49-4.58.03-2.45,2.08-4.46,4.55-4.45,2.54.01,4.51,2.05,4.48,4.62-.03,2.53-1.98,4.42-4.54,4.41Z"/>
  <path class="cls-10" d="M72.44,112.78c-2.4,0-4.48-2.02-4.48-4.39,0-2.35,2.18-4.54,4.54-4.54,2.16,0,4.33,2.24,4.35,4.48.03,2.38-2.02,4.44-4.42,4.45Z"/>
  <path class="cls-16" d="M90.29,134.13c.01,2.31-2.1,4.45-4.43,4.47-2.16.03-4.42-2.25-4.47-4.5-.05-2.27,2.14-4.42,4.47-4.41,2.38.02,4.41,2.06,4.42,4.43Z"/>
  <path class="cls-18" d="M72.38,61.52c-2.35-.01-4.42-2.08-4.42-4.44,0-2.25,2.33-4.51,4.61-4.46,2.12.05,4.28,2.32,4.29,4.53.01,2.34-2.07,4.38-4.47,4.36Z"/>
  <path class="cls-18" d="M45.12,87.34c-2.38-.02-4.31-1.99-4.3-4.37,0-2.41,2.02-4.38,4.46-4.37,2.33,0,4.51,2.03,4.41,4.34-.11,2.72-2.2,4.49-4.57,4.41Z"/>
  <path class="cls-17" d="M45.24,112.76c-2.31.02-4.39-2-4.42-4.31-.03-2.42,2.07-4.56,4.47-4.55,2.19,0,4.34,2.16,4.43,4.42.08,2.26-2.1,4.42-4.47,4.44Z"/>
  <path class="cls-11" d="M85.89,125.55c-2.6-.19-4.46-2.05-4.42-4.47.05-2.33,1.75-4.19,4.42-4.3,2.17-.09,4.33,2.04,4.4,4.23.07,2.19-2.18,4.51-4.4,4.54Z"/>
  <path class="cls-11" d="M40.84,95.81c0-2.27,2.1-4.44,4.32-4.45,2.22-.01,4.58,2.29,4.45,4.47-.16,2.56-2,4.35-4.4,4.34-2.33,0-4.18-1.72-4.37-4.36Z"/>
  <path class="cls-11" d="M4.58,74.41c-2.39-.03-4.3-1.97-4.28-4.36.02-2.4,2.07-4.4,4.44-4.36,2.3.04,4.28,2.12,4.24,4.44-.04,2.31-2.09,4.3-4.39,4.28Z"/>
  <path class="cls-13" d="M182.21,197.4h-3.21v-15.72h3.21v15.72Z"/>
  <path class="cls-13" d="M131.07,181.57v15.81h-3.25c-.03-.41-.08-.82-.08-1.24,0-4.38.04-8.77-.03-13.15-.02-1.19.37-1.56,1.5-1.43.58.07,1.18.01,1.86.01Z"/>
  <path class="cls-29" d="M58.91,61.84c-2.61.01-4.67-2-4.68-4.57,0-2.57,2.04-4.68,4.59-4.72,2.49-.04,4.66,2.1,4.69,4.63.03,2.57-2.03,4.65-4.6,4.66Z"/>
  <path class="cls-30" d="M58.21,88.67c-2.61.01-4.67-2-4.68-4.57,0-2.57,2.04-4.68,4.59-4.72,2.49-.04,4.66,2.1,4.69,4.63.03,2.57-2.03,4.65-4.6,4.66Z"/>
  <path class="cls-6" d="M31.65,61.86c-2.61.01-4.67-2-4.68-4.57,0-2.57,2.04-4.68,4.59-4.72,2.49-.04,4.66,2.1,4.69,4.63.03,2.57-2.03,4.65-4.6,4.66Z"/>
  <path class="cls-27" d="M18.21,61.86c-2.61.01-4.67-2-4.68-4.57,0-2.57,2.04-4.68,4.59-4.72,2.49-.04,4.66,2.1,4.69,4.63.03,2.57-2.03,4.65-4.6,4.66Z"/>
  <path class="cls-4" d="M4.68,62.05C2.07,62.06,0,60.04,0,57.47c0-2.57,2.04-4.68,4.59-4.72,2.49-.04,4.66,2.1,4.69,4.63.03,2.57-2.03,4.65-4.6,4.66Z"/>
  <path class="cls-21" d="M45.25,61.86c-2.61.01-4.67-2-4.68-4.57,0-2.57,2.04-4.68,4.59-4.72,2.49-.04,4.66,2.1,4.69,4.63.03,2.57-2.03,4.65-4.6,4.66Z"/>
  <path class="cls-15" d="M31.58,74.68c-2.61.01-4.67-2-4.68-4.57,0-2.57,2.04-4.68,4.59-4.72,2.49-.04,4.66,2.1,4.69,4.63.03,2.57-2.03,4.65-4.6,4.66Z"/>
  <path class="cls-19" d="M18.14,74.68c-2.61.01-4.67-2-4.68-4.57,0-2.57,2.04-4.68,4.59-4.72,2.49-.04,4.66,2.1,4.69,4.63.03,2.57-2.03,4.65-4.6,4.66Z"/>
  <path class="cls-1" d="M72.45,74.41c-2.61.01-4.67-2-4.68-4.57,0-2.57,2.04-4.68,4.59-4.72,2.49-.04,4.66,2.1,4.69,4.63.03,2.57-2.03,4.65-4.6,4.66Z"/>
  <path class="cls-26" d="M4.58,87.33c-2.39-.03-4.3-1.97-4.28-4.36.02-2.4,2.07-4.4,4.44-4.36,2.3.04,4.28,2.12,4.24,4.44-.04,2.31-2.09,4.3-4.39,4.28Z"/>
  <path class="cls-4" d="M31.49,87.33c-2.39-.03-4.3-1.97-4.28-4.36.02-2.4,2.07-4.4,4.44-4.36,2.3.04,4.28,2.12,4.24,4.44-.04,2.31-2.09,4.3-4.39,4.28Z"/>
  <path class="cls-3" d="M85.79,87.34c-2.39-.03-4.3-1.97-4.28-4.36.02-2.4,2.07-4.4,4.44-4.36,2.3.04,4.28,2.12,4.24,4.44-.04,2.31-2.09,4.3-4.39,4.28Z"/>
  <path class="cls-2" d="M4.58,100.12c-2.39-.03-4.3-1.97-4.28-4.36.02-2.4,2.07-4.4,4.44-4.36,2.3.04,4.28,2.12,4.24,4.44-.04,2.31-2.09,4.3-4.39,4.28Z"/>
  <path class="cls-14" d="M31.49,99.91c-2.39-.03-4.3-1.97-4.28-4.36.02-2.4,2.07-4.4,4.44-4.36,2.3.04,4.28,2.12,4.24,4.44-.04,2.31-2.09,4.3-4.39,4.28Z"/>
  <path class="cls-5" d="M4.58,112.66c-2.39-.03-4.3-1.97-4.28-4.36.02-2.4,2.07-4.4,4.44-4.36,2.3.04,4.28,2.12,4.24,4.44-.04,2.31-2.09,4.3-4.39,4.28Z"/>
  <path class="cls-4" d="M13.69,108.34c0-2.56,1.9-4.45,4.46-4.45,2.59,0,4.53,1.95,4.51,4.54-.02,2.42-2.11,4.45-4.55,4.43-2.5-.02-4.42-1.99-4.42-4.52Z"/>
  <path class="cls-28" d="M53.69,108.34c0-2.56,1.9-4.45,4.46-4.45,2.59,0,4.53,1.95,4.51,4.54-.02,2.42-2.11,4.45-4.55,4.43-2.5-.02-4.42-1.99-4.42-4.52Z"/>
  <path class="cls-7" d="M35.89,121.18c0,2.49-2.13,4.63-4.56,4.59-2.46-.04-4.51-2.15-4.5-4.64,0-2.5,2.09-4.58,4.55-4.56,2.49.02,4.51,2.09,4.5,4.61Z"/>
  <path class="cls-15" d="M72.2,125.57c-2.4,0-4.48-2.02-4.48-4.39,0-2.35,2.18-4.54,4.54-4.54,2.16,0,4.33,2.24,4.35,4.48.03,2.38-2.02,4.44-4.42,4.45Z"/>
  <path class="cls-25" d="M44.99,125.54c-2.31.02-4.39-2-4.42-4.31-.03-2.42,2.07-4.56,4.47-4.55,2.19,0,4.34,2.16,4.43,4.42.08,2.26-2.1,4.42-4.47,4.44Z"/>
  <path class="cls-2" d="M13.45,121.13c0-2.56,1.9-4.45,4.46-4.45,2.59,0,4.53,1.95,4.51,4.54-.02,2.42-2.11,4.45-4.55,4.43-2.5-.02-4.42-1.99-4.42-4.52Z"/>
  <path class="cls-22" d="M53.44,121.13c0-2.56,1.9-4.45,4.46-4.45,2.59,0,4.53,1.95,4.51,4.54-.02,2.42-2.11,4.45-4.55,4.43-2.5-.02-4.42-1.99-4.42-4.52Z"/>
  <path class="cls-5" d="M36.16,134.16c0,2.49-2.13,4.63-4.56,4.59-2.46-.04-4.51-2.15-4.5-4.64,0-2.5,2.09-4.58,4.55-4.56,2.49.02,4.51,2.09,4.5,4.61Z"/>
  <path class="cls-12" d="M72.47,138.55c-2.4,0-4.48-2.02-4.48-4.39,0-2.35,2.18-4.54,4.54-4.54,2.16,0,4.33,2.24,4.35,4.48.03,2.38-2.02,4.44-4.42,4.45Z"/>
  <path class="cls-28" d="M45.26,138.53c-2.31.02-4.39-2-4.42-4.31-.03-2.42,2.07-4.56,4.47-4.55,2.19,0,4.34,2.16,4.43,4.42.08,2.26-2.1,4.42-4.47,4.44Z"/>
  <path class="cls-24" d="M13.72,134.12c0-2.56,1.9-4.45,4.46-4.45,2.59,0,4.53,1.95,4.51,4.54-.02,2.42-2.11,4.45-4.55,4.43-2.5-.02-4.42-1.99-4.42-4.52Z"/>
  <path class="cls-20" d="M53.71,134.12c0-2.56,1.9-4.45,4.46-4.45,2.59,0,4.53,1.95,4.51,4.54-.02,2.42-2.11,4.45-4.55,4.43-2.5-.02-4.42-1.99-4.42-4.52Z"/>
</svg>