<?xml version="1.0" encoding="UTF-8"?>
<!DOCTYPE svg PUBLIC "-//W3C//DTD SVG 1.1//EN" "http://www.w3.org/Graphics/SVG/1.1/DTD/svg11.dtd">
<!-- Creator: CorelDRAW -->
<svg xmlns="http://www.w3.org/2000/svg" xml:space="preserve" width="1098px" height="772px" version="1.1" style="shape-rendering:geometricPrecision; text-rendering:geometricPrecision; image-rendering:optimizeQuality; fill-rule:evenodd; clip-rule:evenodd"
viewBox="0 0 1233.48 866.49"
 xmlns:xlink="http://www.w3.org/1999/xlink"
 xmlns:xodm="http://www.corel.com/coreldraw/odm/2003">
 <defs>
  <style type="text/css">
   <![CDATA[
    .fil5 {fill:white}
    .fil1 {fill:#96989B}
    .fil4 {fill:#E60094}
    .fil2 {fill:white;fill-rule:nonzero}
    .fil3 {fill:#AAACAE;fill-rule:nonzero}
    .fil0 {fill:#201F1F;fill-rule:nonzero}
   ]]>
  </style>
 </defs>
 <g id="Capa_x0020_1">
  <metadata id="CorelCorpID_0Corel-Layer"/>
  <g id="_105553200955936">
   <path class="fil0" d="M185.85 530.81c0,8.92 -12.21,43.92 -36.65,105.34 -24.76,61.08 -36.98,96.09 -36.98,104.67l-44.25 0c0,-8.25 -11.22,-43.26 -34.01,-105.33 -22.45,-61.75 -34.01,-96.75 -34.01,-104.68l51.18 0c0,7.93 7.27,35.66 21.8,83.54 14.19,47.88 21.46,74.96 21.46,81.56l2.64 0c0,-6.27 7.27,-32.36 21.79,-78.58 14.53,-46.23 21.8,-74.96 21.8,-86.52l45.23 0z"/>
   <path id="_1" class="fil0" d="M345.89 647.7c0,5.62 -0.33,12.88 -0.99,21.47l-104.01 1.98c1.65,11.89 6.6,22.12 15.52,30.05 9.24,8.25 20.8,12.21 35.33,12.21 16.18,0 33.35,-2.31 51.51,-7.26l-3.3 31.37c-14.86,5.28 -33.35,7.92 -55.15,7.92 -27.73,0 -48.86,-7.59 -63.72,-23.44 -14.86,-15.52 -22.13,-34.34 -22.13,-56.13 0,-22.79 6.94,-42.93 20.8,-59.44 14.2,-16.84 33.69,-25.43 58.45,-25.43 22.79,0 39.96,6.28 50.85,18.49 11.23,12.55 16.84,28.4 16.84,48.21zm-37.97 -1.32c0,-24.76 -10.57,-36.98 -31.37,-36.98 -20.14,0 -32.03,12.55 -35.99,38.3l67.36 -1.32z"/>
   <path id="_2" class="fil0" d="M481 587.61l-9.24 37.64c-7.93,-2.97 -15.86,-4.62 -24.11,-4.62 -15.85,0 -26.42,6.93 -31.37,21.13 0,42.93 0.33,75.95 0.99,99.06l-42.92 0c1.98,-32.36 2.97,-58.77 2.97,-79.25 0,-25.75 -2.97,-49.86 -8.26,-72.64l41.28 -4.63c1.65,11.89 2.64,18.83 2.64,20.81l2.64 0c9.91,-15.19 23.12,-22.79 39.29,-22.79 7.93,0 16.51,1.65 26.09,5.29z"/>
   <path id="_3" class="fil0" d="M633.33 740.82l-38.3 0.99c-1.65,-4.29 -2.31,-8.58 -2.31,-12.22l-2.31 0c-11.89,10.24 -27.74,15.19 -47.88,15.19 -13.21,0 -24.44,-3.63 -33.35,-11.22 -8.92,-7.27 -13.21,-17.17 -13.21,-29.72 0,-16.18 6.93,-29.72 20.47,-39.96 13.87,-10.56 38.31,-16.18 72.65,-16.84 0.33,-1.98 0.33,-3.63 0.33,-5.28 0,-11.56 -2.64,-19.48 -8.26,-23.11 -5.61,-3.64 -15.85,-5.62 -30.71,-5.62 -16.18,0 -32.03,2.31 -47.55,6.61l3.31 -29.72c14.86,-4.95 35.33,-7.6 62.07,-7.6 19.49,0 34.35,3.97 44.91,12.22 10.57,8.26 15.85,22.46 15.85,42.93 0,4.62 0,12.88 -0.33,24.76 -0.33,11.89 -0.66,19.82 -0.66,23.78 0,22.12 1.65,40.61 5.28,54.81zm-43.25 -33.68c-0.66,-14.53 -0.99,-27.08 -0.99,-37.64 -36.66,0 -54.82,9.24 -54.82,28.06 0,12.55 7.93,19.16 24.11,19.16 12.88,0 23.44,-3.31 31.7,-9.58z"/>
   <path id="_4" class="fil0" d="M786.27 706.81l-2.64 31.04c-9.9,4.95 -23.11,7.59 -39.95,7.59 -27.74,0 -49.2,-7.59 -64.06,-23.11 -14.86,-15.52 -22.13,-34.01 -22.13,-55.8 0,-22.46 7.6,-42.27 23.12,-59.11 15.85,-16.84 36.98,-25.1 64.06,-25.1 13.21,0 25.09,1.32 35.33,4.3l-5.28 33.02c-9.91,-4.3 -21.14,-6.28 -33.35,-6.28 -12.88,0 -23.12,4.63 -30.71,13.87 -7.6,9.25 -11.23,20.47 -11.23,34.01 0,14.53 4.29,26.75 13.21,36.98 8.91,10.24 21.46,15.19 37.97,15.19 9.58,0 21.46,-2.31 35.66,-6.6z"/>
   <path id="_5" class="fil0" d="M917.47 587.61l-9.24 37.64c-7.93,-2.97 -15.85,-4.62 -24.11,-4.62 -15.85,0 -26.41,6.93 -31.37,21.13 0,42.93 0.33,75.95 0.99,99.06l-42.92 0c1.98,-32.36 2.97,-58.77 2.97,-79.25 0,-25.75 -2.97,-49.86 -8.26,-72.64l41.28 -4.63c1.65,11.89 2.64,18.83 2.64,20.81l2.64 0c9.91,-15.19 23.12,-22.79 39.3,-22.79 7.92,0 16.51,1.65 26.08,5.29z"/>
   <path id="_6" class="fil0" d="M1082.68 740.82l-37.97 0.99c-1.65,-5.61 -2.31,-10.23 -2.31,-13.87l-2.64 0c-14.2,11.89 -30.71,17.5 -49.53,17.5 -17.5,0 -31.04,-4.62 -39.96,-13.86 -8.91,-9.25 -13.53,-27.74 -13.53,-55.81 0,-3.3 0.33,-7.92 0.33,-13.87 0.33,-5.94 0.33,-11.22 0.33,-15.85 0,-11.88 -0.99,-31.04 -2.98,-57.12l44.91 -1.65c-1.65,20.8 -2.64,40.28 -2.64,58.77 0,26.42 1.98,43.92 5.94,53.17 3.97,9.24 11.56,13.86 23.12,13.86 12.54,0 23.44,-3.3 32.36,-9.24 0,-56.47 -0.66,-94.77 -1.65,-114.91l43.25 -1.65c-0.99,20.47 -1.32,46.56 -1.32,78.92 0,24.1 1.32,48.87 4.29,74.62z"/>
   <path id="_7" class="fil0" d="M1233.42 708.46l-0.66 32.36 -121.84 0 1.98 -30.71c5.61,-4.95 18.16,-19.81 37.97,-44.9 21.46,-26.75 32.03,-41.94 32.03,-45.9l0 -2.64c-25.76,0 -49.2,0.99 -70.66,2.64l0.66 -31.7 117.22 0 -2.31 31.04c-6.94,7.26 -18.82,22.45 -36.32,45.23 -20.48,26.42 -30.38,41.61 -30.38,45.24l0 2.64c24.1,0 48.54,-0.99 72.31,-3.3z"/>
   <g>
    <path class="fil1" d="M15.43 771.16l1196.58 0c8.48,0 15.43,6.97 15.43,15.43l0 64.48c0,8.46 -6.97,15.42 -15.43,15.42l-1196.58 0c-8.47,0 -15.43,-6.94 -15.43,-15.42l0 -64.48c0,-8.48 6.94,-15.43 15.43,-15.43z"/>
    <path class="fil2" d="M55.46 820.44c0,7.09 -2.08,12.72 -6.23,16.94 -4.09,4.21 -8.84,6.29 -14.26,6.29 -5.22,0 -9.78,-1.94 -13.66,-5.83 -3.88,-3.81 -5.89,-9.03 -5.89,-15.66 0,-7.1 2.07,-12.79 6.22,-16.94 4.09,-4.16 8.84,-6.23 14.26,-6.23 5.16,0 9.71,1.87 13.66,5.76 3.89,3.88 5.9,9.1 5.9,15.67zm-5.83 0.8c0,-5.63 -1.47,-9.98 -4.49,-13.06 -2.94,-3.14 -6.36,-4.68 -10.17,-4.68 -3.62,0 -6.76,1.67 -9.58,4.88 -2.74,3.28 -4.15,7.57 -4.15,13.06 0,5.62 1.47,9.98 4.42,13.06 3.01,3.08 6.43,4.62 10.24,4.62 3.55,0 6.77,-1.61 9.51,-4.96 2.81,-3.28 4.22,-7.56 4.22,-12.92z"/>
    <path id="_1_0" class="fil2" d="M97.02 842.4l-6.29 0c-2.08,-6.23 -3.62,-10.38 -4.55,-12.46 -1.28,-2.54 -2.62,-4.15 -4.16,-4.88 -1.27,-0.61 -3.41,-0.88 -6.62,-0.88 -1.81,0 -3.49,0 -4.89,0.07 0,7.03 0.13,13.06 0.4,18.15l-6.09 0c0.33,-6.77 0.47,-14.2 0.47,-22.37 0,-7.7 -0.14,-14.39 -0.47,-20.22l4.62 0c0.93,0 2.21,0 3.68,-0.06 1.54,-0.07 3.21,-0.14 5.16,-0.14 9.57,0 14.32,3.28 14.32,9.91 0,5.43 -2.67,9.31 -8.03,11.52l0 0.33c2.41,0.74 4.35,2.41 5.82,5.02 1.28,2.15 3.49,7.5 6.63,16.01zm-9.97 -30.67c0,-5.15 -3.55,-7.77 -10.52,-7.77 -2.54,0 -4.62,0.14 -6.36,0.41 0.2,3.81 0.27,8.97 0.27,15.46 1.27,0.07 2.55,0.07 3.75,0.07 8.57,0 12.86,-2.74 12.86,-8.17z"/>
    <path id="_2_1" class="fil2" d="M136.43 841.53c-3.62,1.13 -7.24,1.74 -10.85,1.74 -7.63,0 -13.39,-2.01 -17.34,-6.1 -3.89,-4.08 -5.83,-9.17 -5.83,-15.2 0,-6.09 2.15,-11.38 6.36,-15.93 4.22,-4.55 10.11,-6.83 17.61,-6.83 2.68,0 5.22,0.34 7.7,1l-0.87 5.43c-3.55,-0.87 -6.49,-1.34 -8.7,-1.34 -5.23,0 -9.31,1.61 -12.05,4.82 -2.82,3.15 -4.22,7.16 -4.22,11.85 0,4.75 1.6,8.91 4.82,12.52 3.21,3.55 7.76,5.36 13.59,5.36 1.07,0 2.68,-0.2 4.82,-0.54 -0.4,-2.21 -0.54,-4.89 -0.54,-7.9 0,-2.48 -0.2,-4.95 -0.46,-7.43l5.96 0c-0.21,2.88 -0.27,5.96 -0.27,9.17 0,1.34 0.06,4.49 0.27,9.38z"/>
    <path id="_3_2" class="fil2" d="M181.66 842.4l-6.89 0c0,-1.48 -1.41,-6.03 -4.15,-13.8l-18.82 0c-2.74,7.64 -4.08,12.26 -4.08,13.8l-6.63 0c0,-0.81 2.81,-7.77 8.44,-20.89 5.62,-13.13 8.43,-20.36 8.43,-21.7l7.64 0c0,1.27 2.67,8.44 8.03,21.36 5.36,12.92 8.03,20.02 8.03,21.23zm-12.52 -18.08c-5.15,-12.79 -7.7,-19.55 -7.7,-20.36l-0.33 0c0,0.67 -2.68,7.44 -7.97,20.36l16 0z"/>
    <path id="_4_3" class="fil2" d="M220.98 842.4l-4.55 0c0,-0.41 -3.62,-5.56 -10.72,-15.67 -7.5,-10.58 -11.78,-17.21 -12.79,-20.02l-0.33 0c0.4,5.29 0.6,9.78 0.6,13.52 0,7.3 0.14,14.73 0.47,22.17l-5.49 0c0.34,-7.1 0.54,-14.53 0.54,-22.37 0,-7.7 -0.2,-14.39 -0.54,-20.22l6.29 0c0,0.61 3.29,5.63 9.85,14.93 6.89,9.78 10.78,16.21 11.78,19.15l0.34 0c-0.41,-5.29 -0.61,-9.84 -0.61,-13.52 0,-8.1 -0.13,-14.93 -0.4,-20.56l5.56 0c-0.4,5.83 -0.54,12.52 -0.54,20.22 0,7.84 0.14,15.27 0.54,22.37z"/>
    <path id="_5_4" class="fil2" d="M239.51 842.4l-6.22 0c0.33,-7.03 0.47,-14.53 0.47,-22.37 0,-7.7 -0.14,-14.46 -0.47,-20.22l6.22 0c-0.33,5.96 -0.46,12.72 -0.46,20.22 0,7.9 0.13,15.34 0.46,22.37z"/>
    <path id="_6_5" class="fil2" d="M276.63 831.35c0,8.1 -5.63,12.12 -16.87,12.12 -4.09,0 -7.7,-0.47 -10.92,-1.41l1.14 -5.15c3.68,1.27 7.16,1.94 10.45,1.94 7.43,0 11.11,-2.08 11.11,-6.3 0,-2.14 -0.94,-3.95 -2.88,-5.42 -1.27,-1 -3.82,-2.34 -7.56,-4.02 -3.96,-1.74 -6.77,-3.41 -8.37,-4.88 -2.15,-2.01 -3.28,-4.62 -3.28,-7.7 0,-3.22 1.13,-5.83 3.34,-7.9 2.55,-2.28 6.1,-3.42 10.65,-3.42 5.22,0 8.77,0.4 10.64,1.07l-0.73 5.16c-3.35,-1.01 -6.83,-1.54 -10.58,-1.54 -5.63,0 -8.44,1.87 -8.44,5.62 0,1.81 0.81,3.28 2.48,4.55 1,0.74 3.35,1.88 6.9,3.42 4.08,1.81 7.03,3.48 8.84,5.09 2.74,2.34 4.08,5.29 4.08,8.77z"/>
    <path id="_7_6" class="fil2" d="M331.54 842.4l-6.09 0c0,-4.89 -0.33,-11.92 -1,-21.09 -0.74,-9.18 -1.07,-14.73 -1.14,-16.54l-0.27 0c-2.21,7.09 -4.96,14.8 -8.3,23.03 -3.35,8.3 -5.02,13.19 -5.02,14.6l-4.42 0c0,-1.54 -1.54,-6.5 -4.69,-14.8 -3.08,-8.37 -5.09,-13.99 -5.89,-16.81 -0.87,-2.81 -1.41,-4.82 -1.74,-6.02l-0.34 0c-0.06,3.01 -0.47,9.04 -1.27,18.08 -0.8,9.03 -1.2,15.6 -1.2,19.55l-5.63 0c0,-0.2 0.74,-6.23 2.28,-18.01 1.47,-11.79 2.21,-19.96 2.21,-24.58l8.57 0c0,2.41 1.74,8.44 5.22,18.01 3.48,9.58 5.22,15.4 5.22,17.41l0.34 0c0,-2.01 2.01,-7.83 5.89,-17.47 3.95,-9.64 5.89,-15.6 5.89,-17.95l8.44 0c0,4.62 0.47,12.79 1.47,24.44 1,11.72 1.47,17.74 1.47,18.15z"/>
    <path id="_8" class="fil2" d="M380.25 820.44c0,7.09 -2.07,12.72 -6.22,16.94 -4.09,4.21 -8.84,6.29 -14.27,6.29 -5.22,0 -9.77,-1.94 -13.65,-5.83 -3.89,-3.81 -5.9,-9.03 -5.9,-15.66 0,-7.1 2.08,-12.79 6.23,-16.94 4.08,-4.16 8.84,-6.23 14.26,-6.23 5.16,0 9.71,1.87 13.66,5.76 3.88,3.88 5.89,9.1 5.89,15.67zm-5.82 0.8c0,-5.63 -1.48,-9.98 -4.49,-13.06 -2.94,-3.14 -6.36,-4.68 -10.18,-4.68 -3.61,0 -6.76,1.67 -9.57,4.88 -2.74,3.28 -4.15,7.57 -4.15,13.06 0,5.62 1.47,9.98 4.42,13.06 3.01,3.08 6.43,4.62 10.24,4.62 3.55,0 6.76,-1.61 9.51,-4.96 2.81,-3.28 4.22,-7.56 4.22,-12.92z"/>
    <path id="_9" class="fil2" d="M432.86 810.39c0,4.96 -1.95,8.71 -5.69,11.12 -3.75,2.47 -8.84,3.75 -15.2,3.75 -0.81,0 -1.48,-0.07 -2.08,-0.07 0,4.75 0.13,10.44 0.54,17.21l-6.3 0c0.34,-6.16 0.47,-13.66 0.47,-22.37 0,-7.5 -0.13,-14.26 -0.47,-20.22l4.69 0c0.47,0 1.94,0 4.28,-0.06 2.35,-0.07 4.36,-0.14 6.03,-0.14 4.15,0 7.5,1.01 9.98,2.88 2.47,1.94 3.75,4.55 3.75,7.9zm-5.49 1.88c0,-5.56 -3.82,-8.37 -11.45,-8.37 -1.88,0 -4.02,0.13 -6.36,0.47 0.2,3.55 0.26,9.1 0.26,16.6 0.74,0.07 1.68,0.07 2.82,0.07 9.84,0 14.73,-2.88 14.73,-8.77z"/>
    <path id="_10" class="fil2" d="M475.28 799.81c-0.13,4.15 -0.2,7.97 -0.2,11.59 -0.07,3.55 -0.07,6.89 -0.07,9.97 0,14.6 -5.75,21.9 -17.34,21.9 -3.01,0 -5.55,-0.41 -7.7,-1.28 -2.14,-0.87 -3.95,-2.2 -5.29,-3.94 -1.4,-1.81 -2.4,-4.02 -3.07,-6.77 -0.61,-2.68 -0.94,-5.89 -0.94,-9.57 0,-3.22 0,-6.63 -0.07,-10.25 -0.07,-3.61 -0.13,-7.5 -0.2,-11.65l6.23 0c-0.27,8.31 -0.41,14.8 -0.41,19.55 0,3.75 0.21,6.9 0.54,9.24 0.4,2.41 1.07,4.42 2.01,5.96 0.94,1.61 2.14,2.75 3.55,3.42 1.47,0.67 3.28,1 5.49,1 2.34,0 4.22,-0.33 5.69,-1 1.47,-0.67 2.68,-1.81 3.55,-3.28 0.94,-1.54 1.6,-3.55 2.01,-5.96 0.4,-2.41 0.6,-5.56 0.6,-9.44 0,-2.35 -0.07,-5.09 -0.13,-8.31 -0.07,-3.21 -0.21,-6.96 -0.34,-11.18l6.09 0zm-6.89 -12.65c0,0.27 -1.48,1.74 -4.36,4.42 -2.94,2.68 -4.48,4.15 -4.68,4.55l-3.95 0c0,-0.4 1,-1.87 2.94,-4.62 1.95,-2.68 2.95,-4.15 2.95,-4.35l7.1 0z"/>
    <path id="_11" class="fil2" d="M516.71 829.41c0,4.22 -1.81,7.5 -5.43,9.84 -3.48,2.21 -8.3,3.35 -14.46,3.35 -1.67,0 -5.02,-0.07 -9.97,-0.2 0.26,-6.77 0.46,-14.2 0.46,-22.37 0,-7.7 -0.2,-14.39 -0.46,-20.22l3.88 0c0.8,0 2.34,0 4.62,-0.06 2.34,-0.07 4.01,-0.14 5.02,-0.14 9.1,0 13.66,3.15 13.66,9.38 0,4.88 -2.21,8.17 -6.5,9.77l0 0.34c6.1,1.07 9.18,4.55 9.18,10.31zm-5.56 0.53c0,-5.35 -4.75,-8.03 -14.26,-8.03 -1.74,0 -3.28,0.06 -4.62,0.2 0,5.82 0.13,11.05 0.4,15.6 0.8,0.2 2.28,0.34 4.35,0.34 5.29,0 8.97,-0.74 11.18,-2.08 1.94,-1.27 2.95,-3.28 2.95,-6.03zm-2.61 -19.28c0,-4.55 -3.08,-6.76 -9.18,-6.76 -3.01,0 -5.49,0.13 -7.43,0.47 0.2,1.6 0.27,6.02 0.27,13.32 1.07,0.07 2.28,0.07 3.55,0.07 4.35,0 7.43,-0.47 9.44,-1.48 2.21,-1.07 3.35,-2.94 3.35,-5.62z"/>
    <path id="_12" class="fil2" d="M551.99 837.58l-0.2 4.82 -25.71 0c0.27,-5.36 0.4,-12.86 0.4,-22.37 0,-8.17 -0.13,-14.93 -0.4,-20.22l6.09 0c-0.26,4.42 -0.4,11.18 -0.4,20.22 0,7.44 -0.13,13.46 -0.4,17.95 6.56,0 13.46,-0.14 20.62,-0.4z"/>
    <path id="_13" class="fil2" d="M565.09 842.4l-6.22 0c0.33,-7.03 0.46,-14.53 0.46,-22.37 0,-7.7 -0.13,-14.46 -0.46,-20.22l6.22 0c-0.33,5.96 -0.47,12.72 -0.47,20.22 0,7.9 0.14,15.34 0.47,22.37z"/>
    <path id="_14" class="fil2" d="M606.16 837.17l-0.4 4.89c-2.68,0.8 -5.63,1.21 -8.78,1.21 -7.49,0 -13.12,-2.01 -16.87,-6.16 -3.81,-4.09 -5.69,-9.11 -5.69,-15.07 0,-6.16 2.14,-11.51 6.36,-16.07 4.15,-4.48 9.84,-6.76 16.94,-6.76 1.94,0 4.02,0.34 6.23,0.94l-0.94 5.15c-2.48,-0.73 -4.75,-1.13 -6.7,-1.13 -5.29,0 -9.3,1.6 -11.98,4.88 -2.75,3.28 -4.08,7.3 -4.08,11.99 0,4.82 1.53,8.97 4.68,12.38 3.15,3.49 7.5,5.16 12.99,5.16 2.14,0 4.89,-0.47 8.24,-1.41z"/>
    <path id="_15" class="fil2" d="M651.24 820.44c0,7.09 -2.07,12.72 -6.23,16.94 -4.08,4.21 -8.83,6.29 -14.26,6.29 -5.22,0 -9.77,-1.94 -13.66,-5.83 -3.88,-3.81 -5.89,-9.03 -5.89,-15.66 0,-7.1 2.08,-12.79 6.23,-16.94 4.08,-4.16 8.84,-6.23 14.26,-6.23 5.16,0 9.71,1.87 13.66,5.76 3.88,3.88 5.89,9.1 5.89,15.67zm-5.82 0.8c0,-5.63 -1.48,-9.98 -4.49,-13.06 -2.95,-3.14 -6.36,-4.68 -10.18,-4.68 -3.61,0 -6.76,1.67 -9.57,4.88 -2.75,3.28 -4.15,7.57 -4.15,13.06 0,5.62 1.47,9.98 4.42,13.06 3.01,3.08 6.42,4.62 10.24,4.62 3.55,0 6.76,-1.61 9.51,-4.96 2.81,-3.28 4.22,-7.56 4.22,-12.92z"/>
    <path id="_16" class="fil2" d="M701.03 837.58l-0.2 4.82 -25.71 0c0.27,-5.36 0.4,-12.86 0.4,-22.37 0,-8.17 -0.13,-14.93 -0.4,-20.22l6.09 0c-0.26,4.42 -0.4,11.18 -0.4,20.22 0,7.44 -0.13,13.46 -0.4,17.95 6.56,0 13.46,-0.14 20.62,-0.4z"/>
    <path id="_17" class="fil2" d="M745 820.44c0,7.09 -2.08,12.72 -6.23,16.94 -4.08,4.21 -8.84,6.29 -14.26,6.29 -5.22,0 -9.77,-1.94 -13.66,-5.83 -3.88,-3.81 -5.89,-9.03 -5.89,-15.66 0,-7.1 2.08,-12.79 6.23,-16.94 4.08,-4.16 8.83,-6.23 14.26,-6.23 5.15,0 9.71,1.87 13.66,5.76 3.88,3.88 5.89,9.1 5.89,15.67zm-5.83 0.8c0,-5.63 -1.47,-9.98 -4.48,-13.06 -2.95,-3.14 -6.36,-4.68 -10.18,-4.68 -3.62,0 -6.76,1.67 -9.57,4.88 -2.75,3.28 -4.16,7.57 -4.16,13.06 0,5.62 1.48,9.98 4.42,13.06 3.02,3.08 6.43,4.62 10.25,4.62 3.55,0 6.76,-1.61 9.51,-4.96 2.81,-3.28 4.21,-7.56 4.21,-12.92z"/>
    <path id="_18" class="fil2" d="M783.81 837.17l-0.4 4.89c-2.68,0.8 -5.63,1.21 -8.77,1.21 -7.5,0 -13.13,-2.01 -16.88,-6.16 -3.81,-4.09 -5.69,-9.11 -5.69,-15.07 0,-6.16 2.15,-11.51 6.36,-16.07 4.16,-4.48 9.85,-6.76 16.94,-6.76 1.95,0 4.02,0.34 6.23,0.94l-0.94 5.15c-2.47,-0.73 -4.75,-1.13 -6.69,-1.13 -5.29,0 -9.31,1.6 -11.99,4.88 -2.74,3.28 -4.08,7.3 -4.08,11.99 0,4.82 1.54,8.97 4.69,12.38 3.14,3.49 7.49,5.16 12.98,5.16 2.15,0 4.89,-0.47 8.24,-1.41z"/>
    <path id="_19" class="fil2" d="M826.55 842.4l-6.9 0c0,-1.48 -1.4,-6.03 -4.15,-13.8l-18.81 0c-2.75,7.64 -4.09,12.26 -4.09,13.8l-6.63 0c0,-0.81 2.82,-7.77 8.44,-20.89 5.63,-13.13 8.44,-20.36 8.44,-21.7l7.63 0c0,1.27 2.68,8.44 8.04,21.36 5.35,12.92 8.03,20.02 8.03,21.23zm-12.52 -18.08c-5.16,-12.79 -7.7,-19.55 -7.7,-20.36l-0.34 0c0,0.67 -2.67,7.44 -7.96,20.36l16 0z"/>
    <path id="_20" class="fil2" d="M858.97 837.58l-0.2 4.82 -25.71 0c0.26,-5.36 0.4,-12.86 0.4,-22.37 0,-8.17 -0.14,-14.93 -0.4,-20.22l6.09 0c-0.27,4.42 -0.4,11.18 -0.4,20.22 0,7.44 -0.14,13.46 -0.4,17.95 6.56,0 13.45,-0.14 20.62,-0.4z"/>
    <path id="_21" class="fil2" d="M906.87 837.44l-0.2 4.96 -26.31 0c0.27,-6.77 0.47,-14.2 0.47,-22.37 0,-7.7 -0.2,-14.39 -0.47,-20.22l24.71 0 -0.27 4.89c-5.96,-0.27 -12.32,-0.4 -19.08,-0.4 0.13,3.41 0.2,7.97 0.2,13.73 5.82,0 10.98,-0.14 15.53,-0.41l0 4.89c-4.89,-0.2 -10.04,-0.33 -15.53,-0.33 0,5.62 0.13,10.84 0.33,15.8 7.23,0 14.13,-0.2 20.62,-0.54z"/>
    <path id="_22" class="fil2" d="M941.12 837.58l-0.2 4.82 -25.71 0c0.27,-5.36 0.4,-12.86 0.4,-22.37 0,-8.17 -0.13,-14.93 -0.4,-20.22l6.09 0c-0.26,4.42 -0.4,11.18 -0.4,20.22 0,7.44 -0.13,13.46 -0.4,17.95 6.56,0 13.46,-0.14 20.62,-0.4z"/>
    <path id="_23" class="fil2" d="M974.51 837.44l-0.2 4.96 -26.31 0c0.26,-6.77 0.46,-14.2 0.46,-22.37 0,-7.7 -0.2,-14.39 -0.46,-20.22l24.7 0 -0.27 4.89c-5.96,-0.27 -12.32,-0.4 -19.08,-0.4 0.13,3.41 0.2,7.97 0.2,13.73 5.83,0 10.98,-0.14 15.54,-0.41l0 4.89c-4.89,-0.2 -10.05,-0.33 -15.54,-0.33 0,5.62 0.14,10.84 0.34,15.8 7.23,0 14.12,-0.2 20.62,-0.54z"/>
    <path id="_24" class="fil2" d="M1011.64 837.17l-0.41 4.89c-2.68,0.8 -5.62,1.21 -8.77,1.21 -7.5,0 -13.12,-2.01 -16.87,-6.16 -3.82,-4.09 -5.69,-9.11 -5.69,-15.07 0,-6.16 2.14,-11.51 6.36,-16.07 4.15,-4.48 9.84,-6.76 16.94,-6.76 1.94,0 4.02,0.34 6.23,0.94l-0.94 5.15c-2.48,-0.73 -4.75,-1.13 -6.7,-1.13 -5.29,0 -9.3,1.6 -11.98,4.88 -2.75,3.28 -4.09,7.3 -4.09,11.99 0,4.82 1.54,8.97 4.69,12.38 3.15,3.49 7.5,5.16 12.99,5.16 2.14,0 4.89,-0.47 8.24,-1.41z"/>
    <path id="_25" class="fil2" d="M1046.88 799.81l-0.2 4.62c-4.29,-0.2 -8.78,-0.33 -13.4,-0.33 0,4.22 -0.06,9.51 -0.06,15.93 0,7.1 0.13,14.53 0.33,22.37l-5.96 0c0.27,-7.44 0.41,-14.87 0.41,-22.37 0,-6.36 -0.07,-11.65 -0.21,-15.93 -3.21,0 -7.76,0.13 -13.59,0.4l0.14 -4.69 32.54 0z"/>
    <path id="_26" class="fil2" d="M1090.82 820.44c0,7.09 -2.07,12.72 -6.23,16.94 -4.08,4.21 -8.83,6.29 -14.26,6.29 -5.22,0 -9.77,-1.94 -13.66,-5.83 -3.88,-3.81 -5.89,-9.03 -5.89,-15.66 0,-7.1 2.08,-12.79 6.23,-16.94 4.08,-4.16 8.84,-6.23 14.26,-6.23 5.16,0 9.71,1.87 13.66,5.76 3.88,3.88 5.89,9.1 5.89,15.67zm-5.82 0.8c0,-5.63 -1.48,-9.98 -4.49,-13.06 -2.95,-3.14 -6.36,-4.68 -10.18,-4.68 -3.61,0 -6.76,1.67 -9.57,4.88 -2.75,3.28 -4.15,7.57 -4.15,13.06 0,5.62 1.47,9.98 4.42,13.06 3.01,3.08 6.42,4.62 10.24,4.62 3.55,0 6.76,-1.61 9.51,-4.96 2.81,-3.28 4.22,-7.56 4.22,-12.92z"/>
    <path id="_27" class="fil2" d="M1132.39 842.4l-6.3 0c-2.07,-6.23 -3.61,-10.38 -4.55,-12.46 -1.27,-2.54 -2.61,-4.15 -4.15,-4.88 -1.27,-0.61 -3.42,-0.88 -6.63,-0.88 -1.81,0 -3.48,0 -4.89,0.07 0,7.03 0.14,13.06 0.41,18.15l-6.1 0c0.34,-6.77 0.47,-14.2 0.47,-22.37 0,-7.7 -0.13,-14.39 -0.47,-20.22l4.62 0c0.94,0 2.21,0 3.69,-0.06 1.54,-0.07 3.21,-0.14 5.15,-0.14 9.57,0 14.33,3.28 14.33,9.91 0,5.43 -2.68,9.31 -8.04,11.52l0 0.33c2.41,0.74 4.36,2.41 5.83,5.02 1.27,2.15 3.48,7.5 6.63,16.01zm-9.98 -30.67c0,-5.15 -3.55,-7.77 -10.51,-7.77 -2.54,0 -4.62,0.14 -6.36,0.41 0.2,3.81 0.27,8.97 0.27,15.46 1.27,0.07 2.54,0.07 3.75,0.07 8.57,0 12.85,-2.74 12.85,-8.17z"/>
    <path id="_28" class="fil2" d="M1175.47 842.4l-6.89 0c0,-1.48 -1.41,-6.03 -4.15,-13.8l-18.82 0c-2.74,7.64 -4.08,12.26 -4.08,13.8l-6.63 0c0,-0.81 2.81,-7.77 8.43,-20.89 5.63,-13.13 8.44,-20.36 8.44,-21.7l7.63 0c0,1.27 2.68,8.44 8.04,21.36 5.35,12.92 8.03,20.02 8.03,21.23zm-12.52 -18.08c-5.15,-12.79 -7.7,-19.55 -7.7,-20.36l-0.33 0c0,0.67 -2.68,7.44 -7.97,20.36l16 0z"/>
    <path id="_29" class="fil2" d="M1207.89 837.58l-0.2 4.82 -25.71 0c0.27,-5.36 0.4,-12.86 0.4,-22.37 0,-8.17 -0.13,-14.93 -0.4,-20.22l6.09 0c-0.27,4.42 -0.4,11.18 -0.4,20.22 0,7.44 -0.13,13.46 -0.4,17.95 6.56,0 13.46,-0.14 20.62,-0.4z"/>
   </g>
   <g>
    <g>
     <path class="fil3" d="M268.47 76.5c-2.16,-1.13 -2.99,-3.79 -1.87,-5.94 1.12,-2.16 3.78,-3 5.94,-1.88l-4.07 7.82zm177.41 92.41l-177.41 -92.41 4.07 -7.82 177.4 92.42 -4.06 7.81zm4.06 -7.81c2.16,1.13 3,3.79 1.88,5.94 -1.13,2.16 -3.79,3 -5.94,1.87l4.06 -7.81z"/>
    </g>
    <g>
     <path class="fil3" d="M448.47 457.69c2.13,1.18 2.9,3.86 1.72,5.99 -1.18,2.12 -3.87,2.89 -5.99,1.71l4.27 -7.7zm-172.12 -95.52l172.12 95.52 -4.27 7.7 -172.12 -95.51 4.27 -7.71zm-4.27 7.71c-2.13,-1.18 -2.9,-3.87 -1.72,-5.99 1.18,-2.13 3.87,-2.9 5.99,-1.72l-4.27 7.71z"/>
    </g>
    <g>
     <g>
      <path class="fil3" d="M261.52 84.78l-238.49 31.67 -1.16 -8.73 238.49 -31.67 1.16 8.73zm-1.16 -8.73c2.41,-0.32 4.63,1.38 4.95,3.79 0.31,2.41 -1.38,4.62 -3.79,4.94l-1.16 -8.73zm22.69 20.03l-8.81 0 0 0 -0.02 -0.7 -0.05 -0.67 -0.09 -0.66 -0.11 -0.64 -0.15 -0.62 -0.17 -0.6 -0.21 -0.58 -0.23 -0.55 -0.25 -0.54 -0.28 -0.52 -0.3 -0.5 -0.33 -0.47 -0.35 -0.45 -0.37 -0.43 -0.4 -0.42 -0.41 -0.38 -0.43 -0.36 -0.45 -0.34 -0.48 -0.32 -0.48 -0.29 -0.51 -0.26 -0.52 -0.24 -0.55 -0.21 -0.55 -0.18 -0.58 -0.16 -0.59 -0.13 -0.6 -0.09 -0.62 -0.07 -0.64 -0.03 -0.65 0 -0.67 0.04 -0.68 0.07 -1.16 -8.73 1.13 -0.12 1.13 -0.06 1.11 0 1.1 0.05 1.09 0.11 1.07 0.17 1.05 0.23 1.04 0.28 1.01 0.33 0.98 0.39 0.96 0.43 0.93 0.49 0.9 0.53 0.87 0.58 0.83 0.62 0.8 0.68 0.76 0.71 0.72 0.75 0.69 0.79 0.64 0.83 0.59 0.86 0.55 0.9 0.51 0.93 0.45 0.97 0.41 0.99 0.36 1.01 0.3 1.05 0.25 1.06 0.2 1.1 0.14 1.1 0.09 1.13 0.03 1.14 0 0zm0 0c0,2.43 -1.98,4.4 -4.41,4.4 -2.43,0 -4.4,-1.97 -4.4,-4.4l8.81 0zm-8.81 257.45l0 -257.45 8.81 0 0 257.45 0 0 -8.81 0zm8.81 0c0,2.43 -1.98,4.4 -4.41,4.4 -2.43,0 -4.4,-1.97 -4.4,-4.4l8.81 0zm-21.53 24.73l-1.16 -8.74 0 0 0.69 -0.11 0.68 -0.14 0.67 -0.18 0.67 -0.21 0.65 -0.24 0.65 -0.28 0.64 -0.3 0.63 -0.34 0.62 -0.37 0.6 -0.39 0.59 -0.42 0.57 -0.45 0.55 -0.48 0.53 -0.5 0.52 -0.52 0.49 -0.54 0.48 -0.57 0.44 -0.58 0.42 -0.6 0.4 -0.62 0.36 -0.63 0.35 -0.65 0.31 -0.65 0.28 -0.67 0.25 -0.67 0.22 -0.69 0.18 -0.68 0.16 -0.7 0.12 -0.7 0.09 -0.71 0.05 -0.7 0.02 -0.7 8.81 0 -0.03 1.14 -0.09 1.14 -0.14 1.12 -0.19 1.11 -0.24 1.1 -0.3 1.08 -0.34 1.06 -0.38 1.04 -0.43 1.02 -0.48 1.01 -0.51 0.97 -0.56 0.96 -0.59 0.92 -0.63 0.91 -0.68 0.87 -0.7 0.85 -0.73 0.81 -0.78 0.78 -0.8 0.76 -0.84 0.71 -0.86 0.68 -0.9 0.65 -0.92 0.6 -0.95 0.57 -0.98 0.52 -1 0.48 -1.03 0.44 -1.05 0.39 -1.07 0.34 -1.09 0.28 -1.11 0.24 -1.13 0.18 0 0zm0 0c-2.41,0.32 -4.63,-1.38 -4.95,-3.79 -0.32,-2.41 1.38,-4.63 3.79,-4.95l1.16 8.74zm-239.65 22.93l238.49 -31.67 1.16 8.74 -238.49 31.66 0 0 -1.16 -8.73zm1.16 8.73c-2.41,0.32 -4.62,-1.37 -4.94,-3.79 -0.32,-2.41 1.37,-4.62 3.78,-4.94l1.16 8.73zm-22.68 -20.03l8.81 0 0 0 0.01 0.7 0.05 0.68 0.09 0.66 0.12 0.64 0.14 0.62 0.17 0.59 0.21 0.58 0.23 0.56 0.25 0.54 0.28 0.51 0.31 0.5 0.32 0.48 0.35 0.45 0.38 0.43 0.39 0.41 0.41 0.38 0.43 0.37 0.45 0.33 0.48 0.32 0.49 0.29 0.51 0.27 0.52 0.23 0.54 0.21 0.55 0.19 0.58 0.15 0.59 0.13 0.6 0.09 0.63 0.07 0.63 0.03 0.66 0 0.66 -0.04 0.68 -0.07 1.16 8.73 -1.13 0.12 -1.13 0.06 -1.11 0.01 -1.1 -0.06 -1.08 -0.11 -1.08 -0.17 -1.05 -0.23 -1.03 -0.27 -1.01 -0.34 -0.99 -0.38 -0.96 -0.44 -0.93 -0.48 -0.89 -0.54 -0.87 -0.57 -0.84 -0.63 -0.79 -0.67 -0.77 -0.71 -0.72 -0.75 -0.68 -0.79 -0.64 -0.83 -0.6 -0.86 -0.55 -0.9 -0.5 -0.94 -0.46 -0.96 -0.41 -0.99 -0.35 -1.02 -0.31 -1.04 -0.25 -1.07 -0.2 -1.09 -0.14 -1.11 -0.09 -1.13 -0.02 -1.14 0 0zm0 0c0,-2.43 1.97,-4.4 4.4,-4.4 2.43,0 4.41,1.97 4.41,4.4l-8.81 0zm8.81 -257.44l0 257.44 -8.81 0 0 -257.44 0 0 8.81 0zm-8.81 0c0,-2.44 1.97,-4.41 4.4,-4.41 2.43,0 4.41,1.97 4.41,4.41l-8.81 0zm21.52 -24.73l1.16 8.73 0 0 -0.69 0.11 -0.68 0.14 -0.67 0.18 -0.67 0.21 -0.66 0.24 -0.65 0.28 -0.63 0.3 -0.63 0.34 -0.62 0.37 -0.6 0.39 -0.59 0.42 -0.57 0.46 -0.55 0.47 -0.54 0.5 -0.51 0.52 -0.5 0.54 -0.47 0.57 -0.44 0.58 -0.42 0.6 -0.4 0.62 -0.36 0.63 -0.35 0.64 -0.31 0.66 -0.28 0.67 -0.25 0.67 -0.22 0.68 -0.18 0.7 -0.16 0.69 -0.12 0.7 -0.08 0.71 -0.06 0.7 -0.01 0.71 -8.81 0 0.02 -1.15 0.09 -1.14 0.14 -1.12 0.19 -1.11 0.24 -1.1 0.3 -1.08 0.33 -1.06 0.39 -1.04 0.43 -1.03 0.48 -1 0.51 -0.97 0.56 -0.96 0.59 -0.93 0.63 -0.9 0.67 -0.87 0.71 -0.85 0.73 -0.81 0.78 -0.78 0.8 -0.75 0.84 -0.72 0.86 -0.68 0.9 -0.65 0.92 -0.6 0.95 -0.57 0.98 -0.52 1 -0.48 1.03 -0.44 1.05 -0.38 1.07 -0.34 1.1 -0.29 1.11 -0.23 1.12 -0.18 0 0zm0 0c2.41,-0.32 4.63,1.37 4.95,3.78 0.32,2.41 -1.38,4.63 -3.79,4.95l-1.16 -8.73z"/>
     </g>
     <g>
      <path class="fil4" d="M190.38 195.57l246.87 -32.78c10.08,-1.34 18.32,5.97 18.32,16.22l0 266.49c0,10.24 -8.25,19.74 -18.32,21.07l-246.87 32.78c-10.07,1.34 -18.32,-5.95 -18.32,-16.21l0 -266.49c0,-10.26 8.24,-19.74 18.32,-21.08zm179.72 59.57l-113.03 14.29 0.2 138.94 112.97 -15.79 -0.14 -137.44z"/>
      <path id="_1_7" class="fil3" d="M437.83 167.16l-246.87 32.78 -1.16 -8.74 246.87 -32.78 0 0 1.16 8.74zm-1.16 -8.74c2.41,-0.31 4.62,1.38 4.94,3.79 0.32,2.41 -1.37,4.63 -3.78,4.95l-1.16 -8.74zm23.31 20.59l-8.81 0 0 0 -0.02 -0.73 -0.06 -0.71 -0.08 -0.69 -0.12 -0.67 -0.16 -0.65 -0.18 -0.63 -0.21 -0.6 -0.24 -0.59 -0.27 -0.56 -0.29 -0.55 -0.32 -0.52 -0.35 -0.5 -0.37 -0.47 -0.39 -0.46 -0.4 -0.42 -0.44 -0.41 -0.46 -0.38 -0.47 -0.35 -0.49 -0.34 -0.52 -0.3 -0.53 -0.28 -0.55 -0.25 -0.57 -0.22 -0.58 -0.19 -0.61 -0.17 -0.61 -0.13 -0.64 -0.1 -0.65 -0.06 -0.67 -0.04 -0.68 0 -0.7 0.04 -0.71 0.08 -1.16 -8.74 1.16 -0.12 1.16 -0.06 1.14 0 1.13 0.05 1.12 0.12 1.1 0.17 1.09 0.23 1.06 0.29 1.03 0.34 1.01 0.4 0.99 0.44 0.96 0.5 0.92 0.55 0.89 0.59 0.86 0.65 0.82 0.69 0.78 0.72 0.74 0.78 0.7 0.81 0.66 0.85 0.61 0.89 0.57 0.92 0.52 0.96 0.47 0.99 0.41 1.02 0.37 1.05 0.31 1.07 0.26 1.1 0.2 1.11 0.15 1.14 0.09 1.16 0.03 1.18 0 0zm0 0c0,2.43 -1.98,4.4 -4.41,4.4 -2.43,0 -4.4,-1.97 -4.4,-4.4l8.81 0zm-8.81 266.49l0 -266.49 8.81 0 0 266.49 0 0 -8.81 0zm8.81 0c0,2.43 -1.98,4.4 -4.41,4.4 -2.43,0 -4.4,-1.97 -4.4,-4.4l8.81 0zm-22.15 25.44l-1.16 -8.73 0 0 0.72 -0.12 0.71 -0.15 0.7 -0.18 0.7 -0.22 0.69 -0.26 0.68 -0.28 0.66 -0.32 0.66 -0.36 0.65 -0.38 0.63 -0.41 0.61 -0.44 0.59 -0.47 0.58 -0.5 0.56 -0.52 0.54 -0.54 0.51 -0.57 0.49 -0.59 0.47 -0.61 0.44 -0.63 0.41 -0.64 0.38 -0.66 0.36 -0.67 0.33 -0.69 0.29 -0.69 0.26 -0.71 0.23 -0.72 0.2 -0.72 0.16 -0.72 0.12 -0.73 0.09 -0.74 0.06 -0.73 0.02 -0.74 8.81 0 -0.03 1.18 -0.09 1.16 -0.14 1.16 -0.2 1.14 -0.25 1.13 -0.3 1.11 -0.35 1.1 -0.4 1.06 -0.44 1.06 -0.49 1.03 -0.53 1 -0.57 0.98 -0.62 0.96 -0.65 0.93 -0.68 0.9 -0.73 0.87 -0.76 0.84 -0.79 0.8 -0.83 0.78 -0.86 0.73 -0.89 0.71 -0.92 0.66 -0.96 0.62 -0.97 0.58 -1.01 0.54 -1.03 0.5 -1.06 0.45 -1.08 0.39 -1.1 0.35 -1.12 0.3 -1.14 0.24 -1.16 0.18 0 0zm0 0c-2.41,0.32 -4.63,-1.37 -4.95,-3.79 -0.32,-2.41 1.38,-4.62 3.79,-4.94l1.16 8.73zm-248.03 24.05l246.87 -32.78 1.16 8.73 -246.87 32.78 0 0 -1.16 -8.73zm1.16 8.73c-2.41,0.32 -4.63,-1.38 -4.95,-3.79 -0.32,-2.41 1.38,-4.62 3.79,-4.94l1.16 8.73zm-23.31 -20.58l8.81 0 0 0 0.02 0.73 0.05 0.71 0.09 0.69 0.12 0.67 0.16 0.65 0.18 0.63 0.21 0.6 0.24 0.58 0.27 0.57 0.29 0.54 0.32 0.52 0.35 0.5 0.36 0.48 0.39 0.45 0.42 0.43 0.43 0.4 0.46 0.39 0.47 0.35 0.5 0.33 0.51 0.3 0.53 0.28 0.55 0.25 0.57 0.22 0.58 0.2 0.6 0.16 0.62 0.13 0.64 0.1 0.65 0.07 0.67 0.03 0.68 0 0.7 -0.04 0.71 -0.07 1.16 8.73 -1.16 0.12 -1.16 0.07 -1.14 0 -1.14 -0.06 -1.11 -0.11 -1.1 -0.18 -1.08 -0.23 -1.07 -0.28 -1.03 -0.35 -1.01 -0.39 -0.99 -0.45 -0.95 -0.5 -0.93 -0.54 -0.89 -0.6 -0.86 -0.64 -0.82 -0.69 -0.78 -0.73 -0.74 -0.77 -0.7 -0.81 -0.66 -0.86 -0.61 -0.88 -0.57 -0.92 -0.52 -0.96 -0.46 -0.99 -0.42 -1.02 -0.37 -1.05 -0.31 -1.07 -0.26 -1.1 -0.2 -1.12 -0.15 -1.14 -0.09 -1.16 -0.03 -1.17 0 0zm0 0c0,-2.43 1.98,-4.4 4.41,-4.4 2.43,0 4.4,1.97 4.4,4.4l-8.81 0zm8.81 -266.49l0 266.49 -8.81 0 0 -266.49 0 0 8.81 0zm-8.81 0c0,-2.43 1.98,-4.41 4.41,-4.41 2.43,0 4.4,1.98 4.4,4.41l-8.81 0zm22.15 -25.45l1.16 8.74 0 0 -0.72 0.11 -0.71 0.15 -0.71 0.19 -0.69 0.22 -0.69 0.25 -0.68 0.29 -0.67 0.32 -0.66 0.35 -0.64 0.38 -0.63 0.42 -0.62 0.44 -0.59 0.46 -0.58 0.5 -0.56 0.52 -0.53 0.55 -0.52 0.56 -0.49 0.59 -0.46 0.61 -0.44 0.63 -0.41 0.64 -0.39 0.66 -0.35 0.67 -0.33 0.69 -0.29 0.69 -0.26 0.71 -0.23 0.71 -0.2 0.73 -0.16 0.72 -0.12 0.73 -0.09 0.74 -0.06 0.74 -0.02 0.74 -8.81 0 0.03 -1.18 0.09 -1.17 0.14 -1.16 0.2 -1.14 0.25 -1.13 0.3 -1.11 0.35 -1.09 0.4 -1.07 0.44 -1.06 0.49 -1.02 0.53 -1.01 0.57 -0.98 0.61 -0.96 0.65 -0.93 0.69 -0.9 0.72 -0.86 0.76 -0.84 0.8 -0.81 0.83 -0.77 0.86 -0.74 0.89 -0.7 0.92 -0.66 0.95 -0.63 0.98 -0.58 1.01 -0.54 1.03 -0.49 1.05 -0.45 1.08 -0.4 1.11 -0.35 1.12 -0.29 1.14 -0.24 1.16 -0.19 0 0zm0 0c2.41,-0.32 4.63,1.38 4.95,3.79 0.32,2.41 -1.38,4.63 -3.79,4.95l-1.16 -8.74zm66.72 73.86l113.03 -14.29 1.11 8.74 -113.04 14.29 -4.95 -4.36 3.85 -4.38zm1.1 8.74c-2.41,0.3 -4.61,-1.4 -4.92,-3.82 -0.3,-2.41 1.4,-4.62 3.82,-4.92l1.1 8.74zm-4.76 134.57l-0.19 -138.93 8.8 -0.02 0.2 138.94 -3.79 4.37 -5.02 -4.36zm8.81 -0.01c0,2.43 -1.97,4.41 -4.4,4.41 -2.43,0.01 -4.41,-1.96 -4.41,-4.4l8.81 -0.01zm109.18 -11.42l-112.97 15.79 -1.22 -8.72 112.97 -15.8 5.02 4.36 -3.8 4.37zm-1.22 -8.73c2.41,-0.33 4.64,1.35 4.97,3.75 0.34,2.41 -1.34,4.64 -3.75,4.98l-1.22 -8.73zm4.88 -133.07l0.14 137.43 -8.81 0.01 -0.14 -137.44 3.85 -4.37 4.96 4.37zm-8.81 0c0,-2.43 1.97,-4.4 4.4,-4.4 2.43,-0.01 4.41,1.96 4.41,4.4l-8.81 0z"/>
     </g>
    </g>
    <path class="fil4" d="M1211.24 495.22l-169.94 0 -38.95 0 -0.45 -0.01 -0.45 -0.02 -0.45 -0.02 -0.44 -0.05 -0.44 -0.05 -0.44 -0.06 -0.43 -0.07 -0.43 -0.08 -0.42 -0.09 -0.42 -0.11 -0.42 -0.11 -0.41 -0.13 -0.41 -0.13 0 0 -0.41 -0.14 -0.4 -0.16 -0.39 -0.16 -0.39 -0.17 -0.39 -0.18 -0.38 -0.19 -0.37 -0.2 -0.37 -0.21 -0.37 -0.21 -0.36 -0.23 -0.35 -0.23 -0.35 -0.24 -0.34 -0.25 0 0 -0.33 -0.26 0 0 -0.33 -0.26 -0.32 -0.27 -0.32 -0.28 -0.31 -0.29 0 0 -0.3 -0.29 -0.29 -0.31 -0.29 -0.3 0 0 -0.28 -0.32 0 0 -0.27 -0.32 -0.27 -0.33 -0.25 -0.33 0 -0.01 -0.25 -0.34 -0.24 -0.34 -0.24 -0.36 -0.22 -0.35 -0.22 -0.37 0 0 -0.2 -0.37 0 0 -0.2 -0.37 0 0 -0.19 -0.38 0 0 -0.18 -0.39 -0.17 -0.39 -0.17 -0.4 -0.15 -0.4 -0.14 -0.4 -0.14 -0.41 -0.12 -0.41 0 0 -0.11 -0.42 -0.11 -0.42 -0.09 -0.43 -0.08 -0.43 -0.08 -0.43 -0.06 -0.43 -0.05 -0.44 -0.04 -0.45 -0.03 -0.44 -0.01 -0.45 -0.01 -0.45 0 -62.2c0,-63.84 0,-102.1 0,-165.95l0 -62.19 0.01 -0.45 0.01 -0.45 0.03 -0.45 0.04 -0.44 0.05 -0.44 0.06 -0.43 0.08 -0.44 0.08 -0.43 0.09 -0.42 0.11 -0.42 0.11 -0.42 0 0 0.12 -0.41 0.14 -0.41 0.14 -0.41 0.15 -0.4 0.17 -0.39 0.17 -0.39 0.18 -0.39 0 0 0.19 -0.38 0 0 0.2 -0.37 0 0 0.2 -0.37 0 0 0.22 -0.37 0.22 -0.36 0.24 -0.35 0.24 -0.35 0.25 -0.34 0 0 0.25 -0.33 0.27 -0.33 0.27 -0.32 0 0 0.28 -0.32 0 0 0.29 -0.3 0.29 -0.31 0.3 -0.29 0 0 0.31 -0.29 0.32 -0.28 0.32 -0.27 0.33 -0.27 0 0 0.33 -0.25 0 0 0.34 -0.25 0.35 -0.24 0.35 -0.24 0.36 -0.22 0.37 -0.22 0.37 -0.2 0.37 -0.2 0.38 -0.19 0.39 -0.18 0.39 -0.18 0.39 -0.16 0.4 -0.15 0.41 -0.14 0 0 0.41 -0.14 0.41 -0.12 0.42 -0.11 0.42 -0.11 0.42 -0.09 0.43 -0.08 0.43 -0.08 0.44 -0.06 0.44 -0.05 0.44 -0.04 0.45 -0.03 0.45 -0.01 0.45 -0.01 38.95 0 169.94 0c9.65,0 17.54,7.9 17.54,17.54l0 39.68c0,9.63 -7.9,17.54 -17.54,17.54l-152.41 0c0,9.58 0.02,44.24 0.03,53.83l98.74 0c9.65,0 17.54,7.94 17.54,17.53l0 39.31c0,9.59 -7.94,17.53 -17.54,17.53l-98.63 0c-0.03,9.3 -0.07,38.36 -0.14,47.66l152.41 0c9.65,0 17.54,7.92 17.54,17.53l0 39.73c0,9.62 -7.93,17.54 -17.54,17.54z"/>
    <path class="fil4" d="M940.72 494.24l-120.08 0 -44.91 0 -0.48 -0.01 -0.48 -0.02 -0.48 -0.03 -0.48 -0.04 -0.47 -0.06 -0.47 -0.06 -0.46 -0.08 -0.46 -0.09 -0.46 -0.1 -0.45 -0.11 -0.45 -0.12 -0.45 -0.14 -0.44 -0.14 0 0 -0.43 -0.15 -0.43 -0.17 -0.42 -0.17 -0.43 -0.19 -0.41 -0.19 -0.41 -0.21 -0.4 -0.21 -0.4 -0.22 -0.39 -0.23 -0.39 -0.25 -0.38 -0.25 -0.37 -0.25 -0.37 -0.27 0 0 -0.36 -0.28 0 0 -0.35 -0.28 -0.34 -0.3 -0.34 -0.3 -0.33 -0.31 0 0 -0.33 -0.31 -0.31 -0.33 -0.31 -0.33 0 0 -0.3 -0.34 0 0 -0.3 -0.34 -0.28 -0.35 -0.28 -0.36 0 -0.01 -0.27 -0.36 -0.25 -0.37 -0.25 -0.38 -0.25 -0.39 -0.23 -0.39 0 0 -0.22 -0.4 0 0 -0.21 -0.4 0 0 -0.21 -0.41 0 0 -0.19 -0.42 -0.19 -0.41 -0.17 -0.43 -0.17 -0.43 -0.15 -0.43 -0.14 -0.44 -0.14 -0.45 0 0 -0.12 -0.45 -0.11 -0.45 -0.1 -0.46 -0.09 -0.46 -0.08 -0.46 -0.06 -0.47 -0.06 -0.47 -0.04 -0.48 -0.03 -0.48 -0.02 -0.48 -0.01 -0.48 0 -67.89c0,-68.61 0,-80.66 0,-149.27l0 -69.58 0.01 -0.49 0.02 -0.48 0.03 -0.48 0.04 -0.47 0.06 -0.47 0.06 -0.47 0.08 -0.47 0.09 -0.46 0.1 -0.45 0.11 -0.46 0.12 -0.45 0 0 0.14 -0.44 0.14 -0.44 0.15 -0.44 0.17 -0.42 0.17 -0.43 0.19 -0.42 0.19 -0.41 0 0 0.21 -0.41 0 0 0.21 -0.41 0 0 0.22 -0.39 0 0 0.23 -0.4 0.25 -0.38 0.25 -0.38 0.25 -0.37 0.27 -0.37 0 0 0.28 -0.36 0.28 -0.35 0.3 -0.35 0 0 0.3 -0.34 0 0 0.31 -0.33 0.31 -0.32 0.33 -0.32 0 0 0.33 -0.31 0.34 -0.3 0.34 -0.29 0.35 -0.28 0 -0.01 0.36 -0.27 0 0 0.37 -0.27 0.37 -0.26 0.38 -0.25 0.39 -0.24 0.39 -0.23 0.4 -0.22 0.4 -0.22 0.41 -0.2 0.41 -0.2 0.43 -0.18 0.42 -0.18 0.43 -0.16 0.43 -0.15 0 -0.01 0.44 -0.14 0.45 -0.13 0.45 -0.12 0.45 -0.11 0.46 -0.1 0.46 -0.09 0.46 -0.08 0.47 -0.07 0.47 -0.05 0.48 -0.04 0.48 -0.03 0.48 -0.02 0.48 -0.01 36.75 0c10.37,0 18.89,8.49 18.85,18.85l-0.35 88.42c0,56.07 0.4,86.67 0,142.73l109.74 0c10.36,0 18.84,8.52 18.84,18.85l0 36.74c0,10.33 -8.54,18.85 -18.84,18.85z"/>
    <path class="fil4" d="M483.34 475.58l0 -287.11c0,-10.4 8.51,-18.91 18.91,-18.91l47.78 0c1.01,0 2,0.09 2.97,0.24l150.45 0c14.42,0 26.22,11.82 26.22,26.22l0 202.06c0,14.41 -11.82,26.22 -26.22,26.22l-134.52 0 0 51.28c0,10.37 -8.54,18.91 -18.9,18.91l-47.78 0c-10.39,0 -18.91,-8.51 -18.91,-18.91zm75.8 -231.93l95.15 0 0 107.09 -95.15 0 0 -107.09z"/>
    <g>
     <g>
      <polygon class="fil5" points="312.6,60.8 199.13,6.61 144.94,120.08 190.4,141.79 280.07,128.93 "/>
      <path id="_1_8" class="fil0" d="M196.28 12.57l-3.11 -8.81 8.81 -3.11 113.47 54.19 -5.69 11.92 -113.48 -54.19zm5.7 -11.92l-5.7 11.92c-3.29,-1.57 -4.69,-5.52 -3.11,-8.81 1.57,-3.29 5.51,-4.69 8.81,-3.11zm-51.08 122.28l-8.81 3.12 -3.11 -8.81 54.19 -113.48 11.92 5.7 -54.19 113.47zm-11.92 -5.69l11.92 5.69c-1.57,3.29 -5.52,4.69 -8.81,3.12 -3.29,-1.57 -4.69,-5.52 -3.11,-8.81zm54.26 18.59l-1.91 12.5 -3.78 -0.57 -45.46 -21.71 5.7 -11.93 45.45 21.71zm-5.69 11.93l5.69 -11.93c3.3,1.57 4.69,5.52 3.12,8.81 -1.57,3.29 -5.52,4.69 -8.81,3.12zm91.58 -25.37l6.9 9.39 -5.03 3.7 -89.67 12.85 -1.87 -13.08 89.67 -12.86zm1.87 13.09l-1.87 -13.09c3.61,-0.51 6.96,2 7.48,5.61 0.51,3.61 -1.99,6.96 -5.61,7.48zm25.64 -77.53l8.81 -3.11 3.12 8.81 -32.54 68.13 -11.93 -5.69 32.54 -68.14zm11.93 5.7l-11.93 -5.7c1.57,-3.29 5.52,-4.68 8.81,-3.11 3.29,1.57 4.69,5.52 3.12,8.81z"/>
     </g>
     <g>
      <path class="fil0" d="M309.77 132.51l-1.88 -13.11c3.63,-0.52 6.99,1.99 7.51,5.61 0.52,3.62 -2,6.98 -5.63,7.5zm-145.43 20.86l-1.88 -13.11 145.43 -20.86 1.88 13.11 -145.43 20.86zm-1.88 -13.11l1.88 13.11c-3.63,0.52 -7,-1.99 -7.52,-5.61 -0.51,-3.63 2.01,-6.98 5.64,-7.5z"/>
     </g>
    </g>
    <g>
     <path class="fil3" d="M8.01 125.42c-2.19,-1.07 -3.09,-3.72 -2.01,-5.9 1.07,-2.18 3.71,-3.08 5.89,-2.01l-3.88 7.91zm166.89 82.01l-166.89 -82.01 3.88 -7.91 166.9 82.02 -3.89 7.9zm3.89 -7.9c2.18,1.07 3.08,3.71 2.01,5.89 -1.08,2.19 -3.72,3.09 -5.9,2.01l3.89 -7.9z"/>
    </g>
    <g>
     <path class="fil3" d="M10.42 407.81c-2.12,-1.18 -2.89,-3.87 -1.7,-5.99 1.18,-2.12 3.86,-2.89 5.99,-1.7l-4.29 7.69zm166.02 92.55l-166.02 -92.55 4.29 -7.69 166.02 92.55 -4.29 7.69zm4.29 -7.69c2.13,1.18 2.89,3.86 1.71,5.99 -1.19,2.12 -3.87,2.89 -6,1.7l4.29 -7.69z"/>
    </g>
   </g>
  </g>
 </g>
</svg>
